<?xml version="1.0" standalone="no"?>
<!DOCTYPE svg PUBLIC "-//W3C//DTD SVG 1.1//EN" "http://www.w3.org/Graphics/SVG/1.1/DTD/svg11.dtd" >
<svg xmlns="http://www.w3.org/2000/svg">
<metadata></metadata>
<defs>
<font id="museo_slab700_italic" horiz-adv-x="566" >
<font-face units-per-em="1000" ascent="750" descent="-250" />
<missing-glyph horiz-adv-x="250" />
<glyph unicode="&#xfb01;" horiz-adv-x="668" d="M51 0l81 415h-79l18 95h79l4 21q9 48 31 83.5t47 55t57 31t55.5 15t47.5 3.5l50 -4l-21 -102q-13 3 -33 3q-90 0 -107 -82l-5 -24h330l-68 -345q-3 -15 -3 -31q0 -41 42 -41l22 2l-18 -95q-23 -3 -45 -3q-28 0 -47.5 3t-41 13t-33 32.5t-11.5 57.5q0 17 7 52l51 260h-203 l-80 -415h-127zM495 597l22 113h129l-23 -113h-128z" />
<glyph unicode="&#xfb02;" horiz-adv-x="675" d="M51 0l80 415h-78l18 95h78l4 16q41 202 286 202q51 0 102.5 -7.5t77.5 -14.5l26 -8l-101 -524q-5 -22 -5 -37q0 -22 11 -30t32 -8l23 1l-20 -101q-22 -3 -45 -3q-26 0 -46.5 4t-41.5 15t-32.5 35t-11.5 59q0 23 6 53l89 461q-30 8 -78 8q-126 0 -145 -104l-4 -17h116 l-18 -95h-116l-80 -415h-127z" />
<glyph unicode="&#xfb03;" horiz-adv-x="1010" d="M51 0l80 415h-78l18 95h78l5 21q9 48 31 83.5t47 55t57 31t55.5 15t47.5 3.5l50 -4l-21 -102q-13 3 -33 3q-90 0 -107 -82l-5 -24h215l4 21q9 48 31 83.5t47.5 55t57 31t55.5 15t48 3.5l49 -4l-21 -102q-13 3 -33 3q-89 0 -106 -82l-5 -24h329l-67 -345q-4 -20 -4 -31 q0 -41 43 -41l22 2l-19 -95q-23 -3 -44 -3q-28 0 -47.5 3t-41 13t-33 32.5t-11.5 57.5q0 22 6 52l51 260h-202l-81 -415h-127l81 415h-215l-80 -415h-127zM836 597l23 113h128l-22 -113h-129z" />
<glyph unicode="&#xfb04;" horiz-adv-x="1016" d="M51 0l80 415h-78l18 95h78l5 21q9 48 31 83.5t47 55t57 31t55.5 15t47.5 3.5l50 -4l-21 -102q-13 3 -33 3q-90 0 -107 -82l-5 -24h215l3 16q41 202 286 202q51 0 103 -7.5t78 -14.5l26 -8l-102 -524q-4 -26 -4 -37q0 -22 10.5 -30t31.5 -8l24 1l-21 -101q-21 -3 -44 -3 q-133 0 -133 113q0 23 6 53l90 461q-30 8 -79 8q-124 0 -145 -104l-3 -17h115l-18 -95h-115l-81 -415h-127l81 415h-215l-80 -415h-127z" />
<glyph horiz-adv-x="0" />
<glyph horiz-adv-x="333" />
<glyph unicode=" "  horiz-adv-x="250" />
<glyph unicode="&#x09;" horiz-adv-x="250" />
<glyph unicode="&#xa0;" horiz-adv-x="250" />
<glyph unicode="!" horiz-adv-x="269" d="M60 205l88 505h132l-109 -505h-111zM15 0l24 119h123l-24 -119h-123z" />
<glyph unicode="&#x22;" horiz-adv-x="374" d="M259 500l43 223h94l-43 -223h-94zM98 500l44 223h94l-43 -223h-95z" />
<glyph unicode="#" horiz-adv-x="713" d="M65 0l69 187h-116l32 91h117l52 140h-115l33 92h115l74 200h104l-74 -200h137l74 200h104l-74 -200h118l-33 -92h-118l-52 -140h117l-33 -91h-117l-69 -187h-104l69 187h-137l-69 -187h-104zM271 278h137l52 140h-137z" />
<glyph unicode="$" horiz-adv-x="554" d="M2 99l73 83q7 -7 20.5 -18t54.5 -29.5t81 -18.5q52 0 94 25.5t42 67.5q0 31 -28.5 55.5t-70 43t-82.5 40.5t-69.5 60.5t-28.5 90.5q0 84 65.5 141t162.5 65l19 106h86l-19 -109q48 -6 88 -24t56 -32l16 -15l-67 -90q-7 6 -20 15t-51.5 23.5t-75.5 14.5q-53 0 -92 -26 t-39 -65q0 -31 29 -54.5t70.5 -41.5t82.5 -39.5t70 -59.5t29 -90q0 -84 -67 -145.5t-169 -68.5l-18 -105h-86l19 110q-35 5 -65.5 16t-50 23.5t-33.5 24t-20 19.5z" />
<glyph unicode="%" horiz-adv-x="809" d="M238 406q-66 0 -106.5 39t-40.5 102q0 67 56.5 121t128.5 54q65 0 106 -40.5t41 -101.5q0 -68 -57 -121t-128 -53zM19 0l670 710h123l-670 -710h-123zM247 498q31 0 54.5 23t23.5 55q0 24 -16 39t-42 15q-30 0 -54 -24t-24 -55q0 -23 16 -38t42 -15zM409 128 q0 68 56.5 121.5t127.5 53.5q65 0 106.5 -40.5t41.5 -101.5q0 -68 -57 -120.5t-128 -52.5q-66 0 -106.5 39t-40.5 101zM507 133q0 -24 15.5 -38.5t42.5 -14.5q31 0 54.5 23t23.5 55q0 23 -16 38.5t-42 15.5q-30 0 -54 -24t-24 -55z" />
<glyph unicode="&#x26;" horiz-adv-x="669" d="M24 182q0 65 46 122t116 76v2q-3 1 -7.5 3.5t-16 12t-20.5 21.5t-16 34t-7 48q0 104 76 162.5t177 58.5q24 0 49 -4t38 -8l13 -4l-48 -98q-23 5 -48 5q-51 0 -89.5 -31t-38.5 -85q0 -76 91 -76h114l18 96h127l-19 -96h92l-21 -104h-92l-16 -88q-24 -120 -96.5 -180.5 t-186.5 -60.5q-110 0 -172.5 53.5t-62.5 140.5zM159 193q0 -41 28 -66t76 -25q61 0 101 34.5t53 99.5l15 81h-120q-61 0 -107 -32t-46 -92z" />
<glyph unicode="'" horiz-adv-x="216" d="M98 500l44 223h96l-43 -223h-97z" />
<glyph unicode="(" horiz-adv-x="334" d="M113 -95q-54 133 -54 271q0 324 209 565h112q-210 -260 -210 -568q0 -142 47 -268h-104z" />
<glyph unicode=")" horiz-adv-x="336" d="M-35 -95q209 260 209 568q0 144 -46 268h103q55 -130 55 -271q0 -325 -210 -565h-111z" />
<glyph unicode="*" horiz-adv-x="488" d="M178 321l-83 68l103 102l1 2l-117 29l55 106l111 -49l17 131h115l-35 -131l131 49l15 -109l-136 -34l-1 -2l63 -97l-98 -66l-50 111h-2z" />
<glyph unicode="+" horiz-adv-x="619" d="M200 0l46 236h-216l18 99h217l46 237h103l-46 -237h216l-19 -99h-216l-46 -236h-103z" />
<glyph unicode="," horiz-adv-x="282" d="M59 129h129l-149 -248h-99z" />
<glyph unicode="-" horiz-adv-x="466" d="M69 230l21 111h301l-21 -111h-301z" />
<glyph unicode="." horiz-adv-x="269" d="M15 0l24 128h127l-24 -128h-127z" />
<glyph unicode="/" horiz-adv-x="447" d="M-28 -42l407 788h117l-408 -788h-116z" />
<glyph unicode="0" horiz-adv-x="630" d="M55 228q0 58 10 121t34 131t59.5 120.5t93 87t127.5 34.5q219 0 219 -239q0 -58 -10 -121t-34.5 -131t-60 -121t-92.5 -87.5t-127 -34.5q-219 0 -219 240zM187 232q0 -129 90 -129q47 0 85 39.5t59.5 99.5t32.5 121t11 113q0 131 -90 131q-46 0 -83.5 -39t-59.5 -98 t-33.5 -121t-11.5 -117z" />
<glyph unicode="1" horiz-adv-x="506" d="M-3 0l19 105h154l78 394l11 50h-2q-14 -18 -36 -36l-73 -60l-63 85l216 172h113l-118 -605h153l-21 -105h-431z" />
<glyph unicode="2" horiz-adv-x="594" d="M1 0q1 65 24.5 120.5t61 94t83 71t90.5 60t82 53.5t60.5 58t23.5 67q0 39 -25.5 61t-66.5 22q-38 0 -75 -22t-55 -44l-19 -22l-86 68q4 5 11.5 14.5t32 32.5t52 41t69.5 32.5t85 14.5q91 0 153 -50t62 -133q0 -54 -28 -102.5t-71 -82.5t-94 -68t-95.5 -60t-78 -58 t-40.5 -63h235l18 90h112l-38 -195h-483z" />
<glyph unicode="3" horiz-adv-x="581" d="M0 81l72 89q2 -3 7 -7.5t20.5 -16t32 -20.5t42 -16t51.5 -7q64 0 109.5 39t45.5 94q0 43 -33 67.5t-87 24.5l-41 -3l-17 63l188 192l33 26v2q-24 -3 -41 -3h-148l-17 -84h-112l37 189h447l-17 -91l-206 -207q60 -13 104.5 -53t44.5 -112q0 -102 -82 -180.5t-209 -78.5 q-41 0 -79 9.5t-63 23t-44.5 27.5t-28.5 24z" />
<glyph unicode="4" horiz-adv-x="617" d="M5 183l14 79l390 448h156l-82 -426h91l-19 -101h-92l-36 -183h-127l36 183h-331zM162 284h193l47 237l17 61h-3q-17 -29 -39 -54l-215 -242v-2z" />
<glyph unicode="5" horiz-adv-x="577" d="M1 81l73 85q7 -7 19 -17.5t50 -28t78 -17.5q66 0 115 41t49 102q0 48 -33.5 75t-88.5 27q-30 0 -59.5 -7.5t-44.5 -14.5l-15 -8l-70 29l106 363h384l-37 -189h-112l17 84h-161l-39 -129l-13 -39h2q35 15 83 15q94 0 154.5 -56t60.5 -149q0 -107 -89 -183t-213 -76 q-41 0 -78 9.5t-61 23t-42.5 27.5t-26.5 24z" />
<glyph unicode="6" horiz-adv-x="611" d="M49 250q0 74 28 155t78 152.5t129.5 118t172.5 46.5q41 0 78 -8t53 -16l17 -8l-51 -104q-43 21 -101 21q-81 0 -141.5 -56t-91.5 -138h2q23 23 61 36.5t77 13.5q92 0 145 -56t53 -142q0 -108 -75.5 -192.5t-195.5 -84.5q-105 0 -171.5 70t-66.5 192zM180 242 q0 -56 32.5 -97.5t82.5 -41.5q56 0 93.5 46t37.5 108q0 45 -27.5 73t-82.5 28q-56 0 -96 -33t-40 -83z" />
<glyph unicode="7" horiz-adv-x="558" d="M28 0l394 571l29 35v2q-19 -3 -45 -3h-196l-16 -84h-112l37 189h498l-18 -90l-432 -620h-139z" />
<glyph unicode="8" horiz-adv-x="612" d="M29 177q0 115 153 214q-61 49 -61 119q0 83 69 147.5t183 64.5q97 0 155.5 -46t58.5 -123q0 -98 -121 -206q75 -51 75 -131q0 -91 -80 -159.5t-201 -68.5q-105 0 -168 53t-63 136zM381 394q12 10 27 26.5t33 50.5t18 65q0 35 -24 54.5t-66 19.5q-52 0 -86.5 -28 t-34.5 -70q0 -11 3.5 -21t7.5 -18t14.5 -16.5t16.5 -13.5t21 -13.5t21.5 -12t25 -12t23.5 -11.5zM162 194q0 -43 29 -68.5t77 -25.5q54 0 97 30.5t43 81.5q0 19 -8 34.5t-26 28.5t-32 21.5t-42 21.5t-40 20q-98 -72 -98 -144z" />
<glyph unicode="9" horiz-adv-x="610" d="M31 20l50 104q42 -21 98 -21q82 0 143 56t91 139h-2q-23 -23 -61 -36.5t-78 -13.5q-92 0 -145 56t-53 140q0 108 75.5 193t195.5 85q105 0 171.5 -70t66.5 -193q0 -58 -17 -122t-52 -126t-82.5 -112t-114 -80.5t-141.5 -30.5q-40 0 -76 8t-52 16zM315 354q56 0 96.5 32.5 t40.5 81.5q0 56 -32.5 97.5t-81.5 41.5q-56 0 -94 -46t-38 -108q0 -44 27.5 -71.5t81.5 -27.5z" />
<glyph unicode=":" horiz-adv-x="303" d="M104 381l25 129h127l-25 -129h-127zM29 0l25 128h128l-25 -128h-128z" />
<glyph unicode=";" horiz-adv-x="309" d="M114 381l25 129h124l-25 -129h-124zM-52 -119l117 248h131l-149 -248h-99z" />
<glyph unicode="&#x3c;" horiz-adv-x="619" d="M45 245v82l481 214v-111l-347 -143v-2l347 -143v-111z" />
<glyph unicode="=" horiz-adv-x="619" d="M61 339v98h489v-98h-489zM61 134v98h489v-98h-489z" />
<glyph unicode="&#x3e;" horiz-adv-x="619" d="M91 31v111l346 143v2l-346 143v111l481 -214v-82z" />
<glyph unicode="?" horiz-adv-x="490" d="M127 205l9 48q8 42 33.5 77.5t56 59.5t60 45.5t49 47.5t19.5 55q0 30 -23 49.5t-59 19.5q-27 0 -55.5 -10.5t-43.5 -20.5l-15 -11l-58 95q9 7 26 17.5t67 28.5t98 18q84 0 140.5 -45.5t56.5 -122.5q0 -49 -21.5 -89.5t-54 -68t-65 -50.5t-58.5 -49.5t-32 -54.5l-8 -39 h-122zM88 0l23 119h123l-23 -119h-123z" />
<glyph unicode="@" horiz-adv-x="811" d="M23 184q0 173 134.5 301t322.5 128q116 0 174.5 -51t58.5 -132q0 -25 -5 -53l-45 -232h73l-18 -91h-264q-91 0 -142.5 47t-51.5 116q0 83 69.5 144.5t188.5 61.5h80q1 8 1 14q0 32 -38 53t-95 21q-128 0 -222 -101t-94 -226q0 -94 59.5 -154t165.5 -60l-19 -97 q-147 0 -240 86t-93 225zM387 223q0 -35 21.5 -56.5t58.5 -21.5h77l38 196h-75q-50 0 -85 -36t-35 -82z" />
<glyph unicode="A" horiz-adv-x="728" d="M-45 0l19 98h64l332 612h148l95 -612h64l-19 -98h-262l19 98h70l-18 133h-224l-70 -133h70l-20 -98h-268zM293 333h163l-27 201l-2 62h-3q-8 -27 -24 -62z" />
<glyph unicode="B" horiz-adv-x="693" d="M-6 0l19 98h84l101 513h-86l19 99h305q73 0 122 -18q47 -17 73 -54.5t26 -88.5q0 -57 -31.5 -103.5t-84.5 -71.5v-2q86 -33 86 -140q0 -73 -39.5 -128t-104.5 -82q-55 -22 -134 -22h-355zM291 420h125q47 0 78 31.5t31 78.5q0 43 -27 61q-20 14 -59 14h-112zM230 105h126 q50 0 84 23q55 39 55 106q0 39 -22.5 60.5t-63.5 21.5h-138z" />
<glyph unicode="C" horiz-adv-x="739" d="M51 300q0 173 127 297.5t302 124.5q39 0 81.5 -6.5t87.5 -21t70.5 -44t17.5 -68.5l-20 -98h-117l10 55q4 20 -8.5 35t-35 22t-44.5 10.5t-44 3.5q-124 0 -208 -92.5t-84 -210.5q0 -92 51.5 -149.5t143.5 -57.5q57 0 105.5 18t56.5 54l10 53h119l-18 -91q-7 -39 -37.5 -69 t-73.5 -46t-85.5 -23.5t-83.5 -7.5q-144 0 -233.5 87t-89.5 225z" />
<glyph unicode="D" horiz-adv-x="782" d="M-6 0l19 98h84l100 513h-85l19 99h296q93 0 159 -24q167 -61 167 -260q0 -128 -68 -237.5t-181 -156.5q-77 -32 -176 -32h-334zM229 105h94q79 0 138 29q73 37 116.5 114t43.5 168q0 129 -94 171q-43 18 -107 18h-94z" />
<glyph unicode="E" horiz-adv-x="642" d="M-6 0l19 98h84l101 513h-86l19 99h527l-35 -183h-112l15 78h-199l-38 -195h234l-21 -105h-233l-39 -200h213l16 80h112l-36 -185h-541z" />
<glyph unicode="F" horiz-adv-x="592" d="M-6 0l19 98h84l101 513h-86l19 99h507l-36 -184h-112l14 73h-178l-39 -204h230l-21 -105h-230l-38 -192h94l-19 -98h-309z" />
<glyph unicode="G" horiz-adv-x="771" d="M51 298q0 114 58 211.5t159 155t220 57.5q43 0 89 -8t90 -23.5t68.5 -44t17.5 -64.5l-20 -98h-118l10 52q7 38 -38 56t-101 18q-130 0 -214.5 -93.5t-84.5 -212.5q0 -92 52.5 -148t156.5 -56q59 0 113.5 18t61.5 56l15 76h-129l19 98h248l-42 -211q-10 -52 -62 -87.5 t-112.5 -48.5t-124.5 -13q-150 0 -241 86t-91 224z" />
<glyph unicode="H" horiz-adv-x="858" d="M-6 0l19 98h84l100 513h-85l19 99h302l-19 -99h-86l-40 -205h323l40 205h-86l19 99h302l-19 -99h-85l-101 -513h86l-19 -98h-302l19 98h85l40 203h-322l-40 -203h85l-19 -98h-300z" />
<glyph unicode="I" horiz-adv-x="405" d="M-6 0l19 98h84l100 513h-85l19 99h302l-19 -99h-86l-100 -513h85l-19 -98h-300z" />
<glyph unicode="J" d="M-3 164q0 20 3.5 41.5t7.5 33.5l3 12h125q-12 -41 -12 -73q0 -75 72 -75q38 0 68 25.5t40 79.5l78 403h-100l19 99h307l-19 -99h-76l-79 -410q-21 -106 -88.5 -159.5t-153.5 -53.5q-82 0 -138.5 45.5t-56.5 130.5z" />
<glyph unicode="K" horiz-adv-x="715" d="M-6 0l19 98h84l100 513h-85l19 99h283l-19 -99h-67l-38 -193h75l172 193h-56l19 99h259l-19 -99h-65l-217 -241v-2q18 -12 31 -47l65 -177q9 -27 19.5 -37.5t35.5 -10.5l31 2l-19 -98q-36 -3 -58 -3q-62 0 -90 26t-45 74l-63 183q-11 33 -50 33h-45l-42 -215h82l-19 -98 h-297z" />
<glyph unicode="L" horiz-adv-x="614" d="M-5 0l19 98h85l99 507h-86l21 105h301l-20 -105h-86l-97 -500h210l22 110h112l-43 -215h-537z" />
<glyph unicode="M" horiz-adv-x="969" d="M-18 0l19 98h83l139 513h-84l19 99h228l78 -401l7 -59h2q10 24 28 59l236 401h235l-19 -99h-84l-62 -513h84l-19 -98h-290l19 98h80l43 358l16 66h-3q-15 -39 -29 -63l-199 -327h-113l-71 327l-5 63h-3q-4 -41 -10 -66l-96 -358h79l-19 -98h-289z" />
<glyph unicode="N" horiz-adv-x="848" d="M-6 0l19 98h84l101 513h-86l19 99h213l211 -462q4 -11 8 -25t5 -23l2 -9h3q3 37 9 63l70 357h-88l19 99h304l-19 -99h-85l-119 -611h-128l-213 462q-4 10 -8 24t-5 23l-2 9h-3q-2 -37 -7 -63l-70 -357h88l-19 -98h-303z" />
<glyph unicode="O" horiz-adv-x="821" d="M50 300q0 112 59.5 209.5t158.5 155t210 57.5q140 0 227.5 -86t87.5 -219q0 -113 -60.5 -213t-159.5 -158t-209 -58q-139 0 -226.5 87.5t-87.5 224.5zM182 307q0 -91 53 -147.5t138 -56.5q110 0 198.5 91t88.5 215q0 88 -53 143t-138 55q-111 0 -199 -89t-88 -211z" />
<glyph unicode="P" horiz-adv-x="669" d="M-5 0l19 98h85l101 513h-86l19 99h327q66 0 109 -16q50 -19 80.5 -65.5t30.5 -112.5q0 -80 -44 -148t-116 -97q-49 -19 -120 -19h-139l-31 -154h86l-19 -98h-302zM281 357h116q41 0 73 15q35 17 56 54t21 82q0 60 -38 83q-25 14 -65 14h-115z" />
<glyph unicode="Q" horiz-adv-x="822" d="M50 300q0 111 59.5 209t157 155.5t204.5 57.5q144 0 233.5 -85.5t89.5 -219.5q0 -164 -123 -290l63 -71l-82 -76l-63 78q-97 -70 -216 -70q-145 0 -234 87.5t-89 224.5zM183 307q0 -91 53 -147.5t138 -56.5q72 0 139 43l-84 101l80 74l82 -100q70 85 70 188q0 88 -53 143 t-138 55q-112 0 -199.5 -89t-87.5 -211z" />
<glyph unicode="R" horiz-adv-x="715" d="M-5 0l19 98h85l101 513h-86l19 99h323q80 0 123 -21q91 -43 91 -158q0 -77 -45.5 -143t-126.5 -88v-3q20 -21 29 -46l42 -107q7 -18 11.5 -26.5t15 -15t27.5 -6.5l30 2l-19 -98q-36 -3 -56 -3q-61 0 -89 26t-45 74l-50 137q-7 21 -20.5 29.5t-37.5 8.5h-71l-34 -174h81 l-19 -98h-298zM285 377h114q58 0 98.5 38t40.5 99q0 49 -32 73q-25 18 -78 18h-99z" />
<glyph unicode="S" horiz-adv-x="604" d="M26 156l14 74h119l-11 -53q-8 -38 29 -56t92 -18q63 0 100.5 31t37.5 77q0 34 -31.5 57.5t-76.5 40t-90 36.5t-76.5 60.5t-31.5 99.5q0 104 81.5 160.5t198.5 56.5q35 0 71.5 -7t71 -21t53 -42t10.5 -64l-16 -84h-120l10 49q6 29 -23.5 41.5t-72.5 12.5q-57 0 -94 -25 t-37 -69q0 -34 31.5 -57t76.5 -39t90 -36t76.5 -61t31.5 -102q0 -106 -83.5 -168t-204.5 -62q-40 0 -80 9t-77.5 27t-57 52.5t-11.5 79.5z" />
<glyph unicode="T" horiz-adv-x="679" d="M129 0l19 98h85l99 507h-135l-20 -107h-112l41 212h623l-41 -212h-112l21 107h-134l-99 -507h85l-19 -98h-301z" />
<glyph unicode="U" horiz-adv-x="811" d="M102 201q0 30 11 85l63 325h-85l19 99h301l-19 -99h-85l-63 -325q-9 -52 -9 -69q0 -54 35 -84t97 -30q79 0 127 44q45 39 59 110l69 354h-85l19 99h301l-19 -99h-85l-71 -361q-26 -141 -128 -209q-79 -53 -190 -53q-114 0 -188 56.5t-74 156.5z" />
<glyph unicode="V" horiz-adv-x="720" d="M233 0l-96 611h-66l19 99h273l-19 -99h-74l53 -405q2 -13 2 -29t-1 -25v-10h3q10 35 25 64l212 405h-75l19 99h281l-19 -99h-65l-335 -611h-137z" />
<glyph unicode="W" horiz-adv-x="1017" d="M172 0l-32 611h-65l19 99h273l-19 -99h-83l13 -405l-3 -62h3q10 33 23 62l231 504h105l35 -504l-1 -62h4q8 33 20 62l171 405h-83l19 99h281l-19 -99h-65l-271 -611h-146l-33 448l3 65h-4q-9 -36 -23 -65l-206 -448h-147z" />
<glyph unicode="X" horiz-adv-x="693" d="M-25 0l19 98h62l233 268l-123 245h-67l19 99h263l-19 -99h-70l70 -149l15 -30h2q9 13 24 30l122 149h-65l19 99h261l-19 -99h-63l-232 -267l124 -246h67l-19 -98h-263l19 98h70l-71 149l-14 32h-2q-12 -15 -26 -32l-122 -149h67l-19 -98h-262z" />
<glyph unicode="Y" horiz-adv-x="658" d="M120 0l19 98h85l39 199l-128 314h-64l19 99h258l-19 -99h-68l71 -186l9 -32h2q9 15 22 32l145 186h-69l19 99h268l-19 -99h-64l-251 -314l-39 -199h86l-19 -98h-302z" />
<glyph unicode="Z" horiz-adv-x="646" d="M-3 0l16 83l429 489q8 9 17 17.5t15 12.5l5 4v2q-21 -3 -41 -3h-208l-21 -107h-112l41 212h525l-16 -82l-430 -490q-8 -9 -17.5 -17.5t-14.5 -12.5l-5 -4v-2q21 3 41 3h223l22 110h112l-42 -215h-539z" />
<glyph unicode="[" horiz-adv-x="334" d="M16 -95l163 836h197l-18 -92h-89l-126 -652h89l-19 -92h-197z" />
<glyph unicode="\" horiz-adv-x="437" d="M228 -42l-102 788h104l102 -788h-104z" />
<glyph unicode="]" horiz-adv-x="334" d="M-15 -3h89l126 652h-89l19 92h197l-163 -836h-197z" />
<glyph unicode="^" horiz-adv-x="619" d="M7 245l201 465h80l201 -465h-110l-131 331l-131 -331h-110z" />
<glyph unicode="_" horiz-adv-x="569" d="M-54 0h561l-19 -98h-560z" />
<glyph unicode="`" horiz-adv-x="493" d="M198 757l-107 136h132l82 -136h-107z" />
<glyph unicode="a" d="M-5 119q0 55 33 95.5t86.5 61t108 30t110.5 9.5h18q6 28 6 42q0 63 -81 63q-33 0 -71 -12t-59 -24l-22 -11l-29 94q11 6 29.5 15t72.5 24.5t103 15.5q77 0 130 -36.5t53 -114.5q0 -31 -21 -124t-21 -113q0 -41 43 -41l22 2l-18 -95q-16 -3 -53 -3q-109 0 -119 86h-2 q1 0 -6.5 -10t-22.5 -23.5t-35 -27.5t-49 -24t-60 -10q-62 0 -104 34.5t-42 96.5zM121 140q0 -58 63 -58q49 0 92 44.5t56 95.5l4 16h-22q-28 0 -55.5 -3.5t-61.5 -12.5t-55 -30t-21 -52z" />
<glyph unicode="b" horiz-adv-x="625" d="M22 0l119 615h-79l19 95h205l-42 -216l-12 -46h2q26 33 68.5 53.5t87.5 20.5q91 0 142 -58t51 -157q0 -137 -84.5 -228t-194.5 -91q-49 0 -89.5 20.5t-60.5 60.5h-2q-1 -17 -5 -36l-6 -33h-119zM189 208q0 -50 25.5 -81.5t75.5 -31.5q62 0 113 56.5t51 146.5q0 53 -27 84 t-74 31q-64 0 -114 -60.5t-50 -144.5z" />
<glyph unicode="c" horiz-adv-x="565" d="M23 214q0 122 94 215t233 93q33 0 66 -6.5t65 -20.5t48.5 -40t10.5 -61l-13 -64h-109l6 32q4 24 -22 38t-63 14q-76 0 -131.5 -58t-55.5 -133q0 -57 35.5 -92.5t101.5 -35.5q43 0 85.5 16t63.5 32l20 16l34 -96q-3 -3 -9 -8t-27 -18t-44.5 -23t-60 -18t-75.5 -8 q-117 0 -185 63t-68 163z" />
<glyph unicode="d" horiz-adv-x="651" d="M25 201q0 140 84 230.5t199 90.5q104 0 140 -73h2q1 16 4 31l26 135h-79l19 95h205l-105 -545q-4 -20 -4 -31q0 -41 43 -41l22 2l-19 -95q-21 -3 -47 -3q-56 0 -88 18.5t-35 67.5h-2q-27 -41 -74 -68t-97 -27q-92 0 -143 57t-51 156zM154 210q0 -53 27 -84t74 -31 q65 0 114 61.5t49 142.5q0 50 -25.5 82t-75.5 32q-61 0 -112 -56.5t-51 -146.5z" />
<glyph unicode="e" horiz-adv-x="558" d="M24 207q0 131 85 223t211 92q99 0 151 -52.5t52 -140.5q0 -20 -4.5 -43t-8.5 -36l-4 -13h-351q-3 -12 -3 -26q0 -51 34 -83.5t94 -32.5q36 0 75.5 14t60.5 28l22 14l34 -96q-10 -8 -27.5 -19t-70 -29.5t-102.5 -18.5q-116 0 -182 62t-66 157zM172 312h224q2 16 2 28 q0 39 -22 61.5t-59 22.5q-48 0 -87 -30.5t-58 -81.5z" />
<glyph unicode="f" horiz-adv-x="368" d="M51 0l80 415h-78l18 95h78l5 21q9 48 31 83.5t47 55t57 31t55.5 15t47.5 3.5l50 -4l-21 -102q-13 3 -33 3q-90 0 -107 -82l-5 -24h116l-18 -95h-116l-80 -415h-127z" />
<glyph unicode="g" horiz-adv-x="637" d="M49 -73q53 -33 137 -33q143 0 171 138l13 50h-1q-58 -72 -145 -72q-93 0 -144.5 58t-51.5 151q0 73 30.5 141t94 115t145.5 47q67 0 106 -26t46 -52h2q-1 6 2 18q3 20 20 34t46 14h128l-19 -95h-48q-23 0 -26 -20l-72 -369q-13 -63 -42.5 -110t-70.5 -74t-85.5 -39.5 t-92.5 -12.5q-109 0 -194 48zM157 229q0 -52 26 -82t76 -30q71 0 112 63.5t41 137.5q0 96 -103 96q-69 0 -110.5 -55t-41.5 -130z" />
<glyph unicode="h" horiz-adv-x="654" d="M22 0l119 615h-76l18 95h204l-48 -250l-13 -44h2q14 28 68 67t128 39q68 0 107 -35.5t39 -102.5q0 -34 -20.5 -133.5t-20.5 -116.5q0 -41 43 -41l21 2l-18 -95q-19 -3 -50 -3q-25 0 -43.5 3t-39.5 13t-32.5 32.5t-11.5 56.5q0 28 20 125t20 118q0 61 -65 61 q-66 0 -115.5 -53t-64.5 -129l-44 -224h-127z" />
<glyph unicode="i" horiz-adv-x="338" d="M163 597l22 113h128l-22 -113h-128zM71 103q0 22 6 52l51 260h-79l19 95h205l-67 -345q-4 -20 -4 -31q0 -41 43 -41l22 2l-18 -95q-23 -3 -45 -3q-28 0 -47.5 3t-41 13t-33 32.5t-11.5 57.5z" />
<glyph unicode="j" horiz-adv-x="315" d="M166 597l22 113h128l-22 -113h-128zM49 -13l82 428h-79l18 95h206l-100 -518q-12 -61 -40.5 -103t-66 -61.5t-68.5 -27t-62 -7.5l-52 3l20 99q9 -1 22 -1q102 0 120 93z" />
<glyph unicode="k" horiz-adv-x="582" d="M22 0l120 615h-79l18 95h206l-77 -394h58l107 99h-59l19 95h241l-19 -95h-55l-147 -139v-2q15 -12 28 -43l44 -97q8 -20 20 -30t34 -10l28 1l-18 -95q-33 -3 -52 -3q-32 0 -53.5 6t-35.5 21t-20 26t-16 34q-2 5 -3 7l-46 106q-12 26 -38 26h-35l-44 -223h-126z" />
<glyph unicode="l" horiz-adv-x="310" d="M43 109q0 23 6 53l88 453h-79l19 95h205l-103 -536q-5 -22 -5 -37q0 -22 11 -30t32 -8l23 1l-20 -101q-21 -3 -44 -3q-133 0 -133 113z" />
<glyph unicode="m" horiz-adv-x="985" d="M51 0l77 394q3 21 -18 21h-57l18 95h134q57 0 57 -44q0 -26 -12 -58h2q16 32 71.5 73t119.5 41q54 0 86.5 -30t37.5 -86h2q31 51 81.5 83.5t109.5 32.5q64 0 102 -36t38 -103q0 -32 -20.5 -131.5t-20.5 -117.5q0 -41 42 -41l22 2l-18 -95q-19 -3 -50 -3q-25 0 -43.5 3 t-39.5 13t-32.5 32.5t-11.5 56.5q0 26 20 125t20 120q0 29 -13.5 44t-46.5 15q-58 0 -102 -53.5t-58 -128.5l-43 -224h-127l59 304q6 34 6 47q0 55 -58 55q-61 0 -105.5 -56.5t-59.5 -132.5l-42 -217h-127z" />
<glyph unicode="n" horiz-adv-x="683" d="M51 0l77 393q3 22 -18 22h-57l18 95h134q57 0 57 -45q0 -30 -12 -57h2q14 30 69 72t134 42q66 0 104.5 -35.5t38.5 -102.5q0 -34 -20.5 -133t-20.5 -117q0 -41 43 -41l22 2l-18 -95q-19 -3 -51 -3q-24 0 -42.5 3t-39.5 13t-32.5 32.5t-11.5 56.5q0 28 19.5 125t19.5 118 q0 61 -65 61q-64 0 -114.5 -53.5t-64.5 -128.5l-44 -224h-127z" />
<glyph unicode="o" horiz-adv-x="629" d="M23 214q0 130 97.5 219t226.5 89q106 0 174 -62.5t68 -162.5q0 -131 -98 -220t-226 -89q-106 0 -174 62.5t-68 163.5zM152 220q0 -56 34 -90t89 -34q71 0 128 55.5t57 137.5q0 56 -34.5 90.5t-88.5 34.5q-71 0 -128 -56.5t-57 -137.5z" />
<glyph unicode="p" horiz-adv-x="654" d="M12 -200l115 593q3 22 -17 22h-57l18 95h131q55 0 55 -39q0 -14 -9 -38h2q63 89 169 89q91 0 142 -58t51 -157q0 -137 -84.5 -228t-193.5 -91q-102 0 -145 75h-2q-1 -20 -6 -46l-42 -217h-127zM219 210q0 -50 25.5 -82.5t74.5 -32.5q63 0 113.5 56t50.5 147 q0 54 -26.5 84.5t-74.5 30.5q-63 0 -113 -60.5t-50 -142.5z" />
<glyph unicode="q" horiz-adv-x="625" d="M25 200q0 140 84 231t199 91q108 0 147 -79h2q-1 13 3 33l7 34h119l-120 -618h79l-18 -92h-206l43 220l12 45h-2q-23 -31 -63 -54t-92 -23q-91 0 -142.5 57t-51.5 155zM154 210q0 -53 27 -84t74 -31q65 0 114 61.5t49 142.5q0 50 -25 82t-75 32q-62 0 -113 -56.5 t-51 -146.5z" />
<glyph unicode="r" horiz-adv-x="431" d="M51 0l76 393q4 22 -18 22h-57l19 95h133q58 0 58 -45q0 -33 -17 -80h2q27 56 76 94t105 38q8 0 18.5 -1t11.5 -1l-25 -125q-1 0 -5 0.5t-11 1t-14 0.5q-60 0 -116.5 -58t-73.5 -148l-35 -186h-127z" />
<glyph unicode="s" horiz-adv-x="498" d="M1 120l10 50h108l-5 -26q-5 -23 13 -36.5t39 -17t45 -3.5q44 0 70 16.5t26 42.5q0 23 -24.5 39t-60 28t-70.5 27t-59.5 45.5t-24.5 74.5q0 78 67 120t161 42q74 0 126 -29.5t42 -85.5l-11 -56h-109l5 30q4 23 -17.5 32t-51.5 9q-39 0 -63.5 -14t-24.5 -40 q0 -24 24.5 -39.5t60 -27t71 -25.5t60 -43.5t24.5 -72.5q0 -77 -66.5 -124.5t-171.5 -47.5q-49 0 -93.5 11.5t-76.5 43t-23 77.5z" />
<glyph unicode="t" horiz-adv-x="380" d="M72 150q0 19 5 47l43 218h-79l19 95h82l27 139h122l-27 -139h117l-18 -95h-117l-41 -214q-3 -18 -3 -34q0 -69 80 -69l28 2l-20 -102q-20 -3 -37 -3q-50 0 -88.5 13t-65.5 49.5t-27 92.5z" />
<glyph unicode="u" horiz-adv-x="679" d="M71 125q0 23 7 61l44 229h-79l19 95h206l-59 -302q-6 -34 -6 -47q0 -60 64 -60q63 0 113 55t63 124l26 135h-79l19 95h206l-68 -345q-3 -15 -3 -31q0 -41 43 -41l21 2l-18 -95q-23 -3 -54 -3q-116 0 -116 105h-2q-77 -114 -200 -114q-65 0 -106 34t-41 103z" />
<glyph unicode="v" horiz-adv-x="599" d="M168 0l-74 415h-62l19 95h241l-19 -95h-58l40 -252l2 -56h3q9 30 23 56l138 252h-58l19 95h249l-19 -95h-62l-236 -415h-146z" />
<glyph unicode="w" horiz-adv-x="865" d="M132 0l-37 415h-61l19 95h241l-19 -95h-62l19 -249l-3 -55h4q8 30 18 55l163 343h112l28 -343l-3 -55h4q8 30 18 55l116 249h-61l18 95h249l-18 -95h-62l-198 -415h-145l-28 299l1 56h-3q-8 -30 -20 -56l-146 -299h-144z" />
<glyph unicode="x" horiz-adv-x="576" d="M-16 0l18 95h65l148 169l-65 133q-8 18 -31 18h-53l19 95h101q25 0 36.5 -7.5t21.5 -30.5l39 -94l13 -35h2q11 18 25 35l107 132h146l-18 -95h-64l-143 -162l59 -119q8 -15 13 -22t16 -12.5t27 -5.5l34 1l-19 -95q-33 -3 -47 -3q-33 0 -55 6.5t-37 23.5t-20.5 27 t-17.5 37l-20 50l-13 35h-2q-11 -18 -25 -35l-114 -141h-146z" />
<glyph unicode="y" horiz-adv-x="606" d="M-11 -84q25 -22 73 -22q64 0 101 59l20 32l-91 430h-61l18 95h247l-18 -95h-60l43 -258q2 -11 2 -24.5t-1 -20.5l-1 -8h3q10 28 24 53l143 258h-59l19 95h244l-18 -95h-59l-281 -481q-84 -144 -218 -144q-36 0 -68 9t-45 19l-14 9z" />
<glyph unicode="z" horiz-adv-x="540" d="M-13 0l15 81l307 299q37 35 41 35v2q-23 -2 -48 -2h-120l-14 -74h-108l33 169h431l-16 -82l-304 -298q-9 -9 -19 -18t-16 -13.5t-6 -3.5v-2q23 2 48 2h137l14 73h109l-34 -168h-450z" />
<glyph unicode="{" horiz-adv-x="359" d="M70 34q0 24 5 47l16 87q3 15 3 28q0 32 -17 51t-33 22l-17 3l21 111q3 0 9 1t22 7t29.5 16.5t26.5 31.5t19 50l18 95q36 177 239 159l-18 -94q-34 6 -70 -13t-46 -71l-23 -119q-5 -27 -18 -49t-28 -34t-29 -20.5t-23 -11.5l-10 -3v-2q2 -1 6.5 -3t15 -10t18.5 -18.5 t14.5 -30t6.5 -42.5q0 -15 -3 -31l-21 -107q-3 -15 -3 -29q0 -27 16.5 -41.5t33.5 -16.5t36 0l-18 -94q-14 -2 -32 -2q-19 0 -40 5t-47 17.5t-42.5 41t-16.5 69.5z" />
<glyph unicode="|" horiz-adv-x="344" d="M121 -161v957h108v-957h-108z" />
<glyph unicode="}" horiz-adv-x="359" d="M-42 -97l18 94q34 -6 70 13t46 71l25 127q5 27 18 49.5t28 35t29 21t24 11.5l9 3v2q-2 1 -6.5 3t-15 10t-18.5 18.5t-14.5 29.5t-6.5 42q0 13 3 31l19 101q3 13 3 26q0 27 -16.5 41.5t-33.5 16.5t-36 0l18 94q27 4 56 -1t57.5 -18.5t46.5 -42.5t18 -70q0 -25 -5 -46 l-14 -78q-3 -17 -3 -28q0 -32 16.5 -51t33.5 -22l17 -3l-21 -111q-3 0 -9 -1t-22 -7.5t-29.5 -16.5t-26.5 -31.5t-19 -50.5l-20 -104q-10 -52 -36 -87.5t-61 -50.5t-69.5 -19.5t-72.5 -0.5z" />
<glyph unicode="~" horiz-adv-x="606" d="M52 199q0 182 153 182q34 0 61.5 -14t43 -31.5t36.5 -31.5t43 -14q31 0 46.5 25t15.5 62h100q0 -182 -152 -182q-34 0 -62 14t-43.5 31t-36.5 31t-43 14q-31 0 -46.5 -24.5t-15.5 -61.5h-100z" />
<glyph unicode="&#xa1;" horiz-adv-x="266" d="M88 391l23 119h124l-24 -119h-123zM-30 -200l109 505h111l-88 -505h-132z" />
<glyph unicode="&#xa2;" horiz-adv-x="578" d="M195 -12l17 89q-75 18 -119.5 77.5t-44.5 148.5q0 129 81.5 226t191.5 108l16 84h86l-17 -89q38 -8 67.5 -27.5t45 -41t26 -42t13.5 -33.5l3 -14l-114 -42q0 4 -1.5 9.5t-8.5 21t-17 27t-30 21t-45 9.5q-68 0 -118 -62.5t-50 -151.5q0 -54 27 -85t76 -31q25 0 48.5 9 t39.5 22t28 25.5t18 21.5l5 9l108 -46q-3 -6 -8.5 -16t-26.5 -36.5t-45.5 -47t-64.5 -39t-85 -22.5l-16 -82h-86z" />
<glyph unicode="&#xa3;" horiz-adv-x="624" d="M-13 0l19 101h83l42 210h-71l17 87h70l26 130q17 85 86 139.5t163 54.5q32 0 62 -8t50 -19t35.5 -22.5t22.5 -19.5l7 -8l-81 -79q-40 41 -99 41q-44 0 -77 -26t-41 -66l-23 -117h170l-17 -87h-169l-42 -210h214l22 114h112l-41 -215h-540z" />
<glyph unicode="&#xa5;" horiz-adv-x="644" d="M195 0l37 186h-163l14 77h163l7 33l-17 48h-137l15 76h98l-97 290h140l57 -190l25 -114h2q29 59 62 113l129 191h153l-211 -290h99l-15 -76h-138l-34 -48l-7 -33h162l-14 -77h-162l-37 -186h-131z" />
<glyph unicode="&#xa7;" horiz-adv-x="465" d="M108 138l-5 337q-5 104 54 175.5t167 71.5q31 0 59.5 -6.5t48 -16t34.5 -19.5t22 -16l7 -7l-66 -74q-39 35 -105 35q-63 0 -95 -40t-29 -104l4 -336h-96zM-16 3l66 74q39 -35 105 -35q63 0 95 39.5t29 104.5l-5 336h97l5 -337q5 -105 -54.5 -176t-167.5 -71 q-30 0 -59 6.5t-48 16.5t-34 19.5t-22 15.5z" />
<glyph unicode="&#xa8;" horiz-adv-x="493" d="M239 777l24 116h104l-24 -116h-104zM22 777l23 116h104l-24 -116h-103z" />
<glyph unicode="&#xa9;" horiz-adv-x="809" d="M57 355q0 152 104 259t252 107q151 0 256 -107t105 -259t-105 -259.5t-256 -107.5q-148 0 -252 107.5t-104 259.5zM146 355q0 -120 77 -203t190 -83q115 0 193.5 83t78.5 203t-78.5 202.5t-193.5 82.5q-113 0 -190 -82.5t-77 -202.5zM232 353q0 81 53 138t134 57 q34 0 63 -11t46.5 -26.5t30 -30.5t17.5 -26l5 -11l-76 -36l-3 6t-9.5 14t-16.5 17.5t-23.5 14t-30.5 6.5q-44 0 -71.5 -32t-27.5 -80q0 -49 26.5 -80.5t72.5 -31.5q25 0 46 14.5t29 28.5l8 15l76 -35q-2 -4 -5.5 -11.5t-17 -25.5t-30.5 -32t-46 -25.5t-63 -11.5 q-81 0 -134 57t-53 138z" />
<glyph unicode="&#xaa;" horiz-adv-x="423" d="M192 383q-38 0 -65.5 22.5t-27.5 62.5q0 120 203 120h14q2 12 2 16q3 22 -9.5 34t-38.5 12q-18 0 -40 -6.5t-35 -13.5l-13 -6l-22 62q54 34 135 34q56 0 85 -26.5t29 -74.5q0 -10 -4 -36l-38 -194h-84l9 47h-2q-4 -6 -11.5 -15t-33 -23.5t-53.5 -14.5zM226 450 q27 0 49.5 24.5t28.5 59.5h-11q-23 0 -43.5 -3.5t-40 -16.5t-19.5 -34q0 -30 36 -30zM61 266l12 68h287l-13 -68h-286z" />
<glyph unicode="&#xab;" horiz-adv-x="603" d="M386 77l-129 206l210 205h128l-222 -211l129 -200h-116zM163 77l-129 206l191 205h126l-201 -211l129 -200h-116z" />
<glyph unicode="&#xac;" horiz-adv-x="635" d="M67 339v98h488v-294h-102v196h-386z" />
<glyph unicode="&#xad;" horiz-adv-x="466" d="M69 230l21 111h301l-21 -111h-301z" />
<glyph unicode="&#xae;" horiz-adv-x="809" d="M57 355q0 152 104 259t252 107q151 0 256 -107t105 -259t-105 -259.5t-256 -107.5q-148 0 -252 107.5t-104 259.5zM146 355q0 -120 77 -203t190 -83q115 0 193.5 83t78.5 203t-78.5 202.5t-193.5 82.5q-113 0 -190 -82.5t-77 -202.5zM288 174v366h153q54 0 86.5 -31.5 t32.5 -84.5q0 -39 -20.5 -64t-43.5 -31v-2q4 -4 13 -21l68 -132h-93l-62 135h-48v-135h-86zM374 369h47q25 0 38.5 14.5t13.5 40.5q0 54 -51 54h-48v-109z" />
<glyph unicode="&#xaf;" horiz-adv-x="493" d="M55 783l17 87h262l-16 -87h-263z" />
<glyph unicode="&#xb0;" horiz-adv-x="403" d="M236 408q-66 0 -107.5 39t-41.5 100q0 68 55.5 122t124.5 54q65 0 107 -40.5t42 -100.5q0 -69 -56 -121.5t-124 -52.5zM241 499q30 0 54 23t24 53q0 25 -16 40.5t-42 15.5q-31 0 -54.5 -23.5t-23.5 -53.5q0 -24 16 -39.5t42 -15.5z" />
<glyph unicode="&#xb1;" horiz-adv-x="619" d="M39 236v99h216v237h103v-237h216v-99h-216v-236h-103v236h-216zM52 -85h509v-98h-509v98z" />
<glyph unicode="&#xb2;" horiz-adv-x="390" d="M64 423q0 51 20 92t49.5 65t63.5 46t63 36.5t48.5 34.5t19.5 43q0 20 -14.5 32t-36.5 12q-21 0 -43.5 -11.5t-34.5 -22.5l-12 -12l-56 60q7 8 20 20.5t53.5 33t80.5 20.5q59 0 100 -32.5t41 -89.5q0 -42 -23.5 -75.5t-58 -55t-70 -40t-64 -38.5t-34.5 -42h141l9 48h76 l-23 -124h-315z" />
<glyph unicode="&#xb3;" horiz-adv-x="384" d="M219 413q-30 0 -57 7t-44 16.5t-29.5 19.5t-18.5 17l-5 7l59 63q4 -5 11 -12t31.5 -19t52.5 -12q33 0 57.5 21.5t24.5 51.5q0 22 -19.5 34.5t-48.5 12.5h-31l-11 42l106 105l26 21v4q-16 -4 -32 -4h-76l-10 -51h-76l24 125h291l-12 -61l-123 -118q37 -10 63 -37.5 t26 -71.5q0 -62 -51.5 -111.5t-127.5 -49.5z" />
<glyph unicode="&#xb4;" horiz-adv-x="493" d="M56 757l134 136h143l-161 -136h-116z" />
<glyph unicode="&#xb6;" horiz-adv-x="627" d="M202 -50l57 291q-78 0 -136.5 59t-58.5 147q0 106 84 184.5t188 78.5h318l-21 -111h-212l-127 -649h-92zM356 -50l116 594h92l-115 -594h-93z" />
<glyph unicode="&#xb7;" horiz-adv-x="283" d="M65 227l25 129h123l-24 -129h-124z" />
<glyph unicode="&#xb8;" horiz-adv-x="493" d="M113 -100l61 125l56 -13l-2 -7l-28 -59q31 -2 52 -21t21 -49q0 -50 -43 -74.5t-97 -24.5q-15 0 -30.5 1.5t-22.5 3.5l-8 2l12 62q19 -7 45 -7q56 0 56 34q0 27 -52 27h-20z" />
<glyph unicode="&#xb9;" horiz-adv-x="354" d="M64 423l15 76h101l40 207l10 35h-2q-11 -14 -24 -24l-43 -33l-45 61l146 117h83l-70 -363h101l-15 -76h-297z" />
<glyph unicode="&#xba;" horiz-adv-x="468" d="M257 384q-67 0 -109.5 39.5t-42.5 102.5q0 81 61.5 137.5t140.5 56.5q68 0 110.5 -39.5t42.5 -102.5q0 -82 -62 -138t-141 -56zM265 464q40 0 72 31t32 77q0 31 -19.5 50t-49.5 19q-40 0 -72 -31.5t-32 -76.5q0 -31 19.5 -50t49.5 -19zM66 266l14 68h322l-13 -68h-323z " />
<glyph unicode="&#xbb;" horiz-adv-x="603" d="M245 77l201 211l-128 200h116l129 -206l-191 -205h-127zM2 77l221 211l-128 200h116l129 -206l-210 -205h-128z" />
<glyph unicode="&#xbc;" horiz-adv-x="989" d="M745 0l21 102h-203l11 61l240 276h110l-51 -265h58l-13 -72h-59l-20 -102h-94zM668 174h111l26 130l13 47h-3q-14 -24 -29 -42l-118 -133v-2zM315 0h-98l473 710h98zM50 271l15 76h101l40 207l10 35h-2q-11 -14 -24 -24l-43 -33l-45 61l146 117h83l-70 -363h101l-15 -76 h-297z" />
<glyph unicode="&#xbd;" horiz-adv-x="976" d="M566 0q0 51 20 92t49.5 65t63.5 46t63 36.5t48.5 34.5t19.5 43q0 20 -14.5 32t-36.5 12q-21 0 -43.5 -11.5t-34.5 -23.5l-12 -11l-56 60q7 8 20 20.5t53.5 33t80.5 20.5q59 0 100 -32.5t41 -89.5q0 -42 -23.5 -75.5t-58 -55t-70 -40t-64 -38.5t-34.5 -42h141l9 48h76 l-23 -124h-315zM312 0h-98l473 710h98zM45 271l15 76h101l40 207l10 35h-2q-11 -14 -24 -24l-43 -33l-45 61l146 117h83l-70 -363h101l-15 -76h-297z" />
<glyph unicode="&#xbe;" horiz-adv-x="997" d="M750 0l21 102h-203l11 61l240 276h110l-51 -265h58l-13 -72h-59l-20 -102h-94zM673 174h111l26 130l13 47h-3q-14 -24 -29 -42l-118 -133v-2zM203 261q-30 0 -57 7t-44 16.5t-29.5 19.5t-18.5 17l-5 7l59 63q4 -5 11 -12t31.5 -19t52.5 -12q33 0 57.5 21.5t24.5 51.5 q0 22 -19.5 34.5t-48.5 12.5h-31l-11 42l106 105l26 21v4q-16 -4 -32 -4h-76l-10 -51h-76l24 125h291l-12 -61l-123 -118q37 -10 63 -37.5t26 -71.5q0 -62 -51.5 -111.5t-127.5 -49.5zM320 0h-98l473 710h98z" />
<glyph unicode="&#xbf;" horiz-adv-x="489" d="M238 391l23 119h123l-23 -119h-123zM-15 -42q0 49 21.5 89.5t53.5 67.5t65 50.5t59 50t32 54.5l7 35h122l-8 -44q-8 -42 -34 -77.5t-56 -59.5t-59.5 -46t-49 -48t-19.5 -55q0 -30 22.5 -49.5t58.5 -19.5q27 0 56 11t44 21l15 11l57 -95q-9 -7 -26 -17.5t-66.5 -28.5 t-97.5 -18q-84 0 -140.5 45t-56.5 123z" />
<glyph unicode="&#xc0;" horiz-adv-x="726" d="M-46 0l19 98h64l332 612h148l95 -612h64l-19 -98h-262l19 98h70l-18 133h-224l-70 -133h70l-20 -98h-268zM292 333h163l-27 201l-2 62h-3q-8 -27 -24 -62zM413 757l-107 136h132l82 -136h-107z" />
<glyph unicode="&#xc1;" horiz-adv-x="728" d="M-45 0l19 98h64l332 612h148l95 -612h64l-19 -98h-262l19 98h70l-18 133h-224l-70 -133h70l-20 -98h-268zM293 333h163l-27 201l-2 62h-3q-8 -27 -24 -62zM378 757l134 136h143l-161 -136h-116z" />
<glyph unicode="&#xc2;" horiz-adv-x="728" d="M-45 0l19 98h64l332 612h148l95 -612h64l-19 -98h-262l19 98h70l-18 133h-224l-70 -133h70l-20 -98h-268zM293 333h163l-27 201l-2 62h-3q-8 -27 -24 -62zM290 757l120 136h130l65 -136h-102l-34 81h-2l-66 -81h-111z" />
<glyph unicode="&#xc3;" horiz-adv-x="728" d="M-45 0l19 98h64l332 612h148l95 -612h64l-19 -98h-262l19 98h70l-18 133h-224l-70 -133h70l-20 -98h-268zM293 333h163l-27 201l-2 62h-3q-8 -27 -24 -62zM277 758q13 65 46 101t81 36q24 0 42 -10t26.5 -22t19.5 -22t24 -10q35 0 47 61h89q-12 -64 -46 -100.5t-81 -36.5 q-30 0 -49.5 16t-33.5 32t-29 16q-34 0 -47 -61h-89z" />
<glyph unicode="&#xc4;" horiz-adv-x="728" d="M-45 0l19 98h64l332 612h148l95 -612h64l-19 -98h-262l19 98h70l-18 133h-224l-70 -133h70l-20 -98h-268zM293 333h163l-27 201l-2 62h-3q-8 -27 -24 -62zM512 777l24 116h104l-24 -116h-104zM295 777l23 116h104l-24 -116h-103z" />
<glyph unicode="&#xc5;" horiz-adv-x="728" d="M-45 0l19 98h64l332 612h148l95 -612h64l-19 -98h-262l19 98h70l-18 133h-224l-70 -133h70l-20 -98h-268zM293 333h163l-27 201l-2 62h-3q-8 -27 -24 -62zM453 742q-37 0 -62 18.5t-25 51.5q0 42 33.5 67.5t75.5 25.5q37 0 63 -19t26 -53q0 -41 -34.5 -66t-76.5 -25z M457 787q19 0 31.5 13t12.5 32q0 28 -29 28q-17 0 -30 -13t-13 -33q0 -27 28 -27z" />
<glyph unicode="&#xc6;" horiz-adv-x="970" d="M-42 0l19 98h59l310 513h-72l19 99h694l-35 -183h-106l16 78h-202l-38 -195h231l-21 -105h-231l-39 -200h217l15 78h105l-35 -183h-537l19 98h84l41 209h-176l-123 -209h72l-19 -98h-267zM353 406h137l39 199h-57z" />
<glyph unicode="&#xc7;" horiz-adv-x="739" d="M260 -100l46 95q-117 19 -186 101.5t-69 203.5q0 173 127 297.5t302 124.5q39 0 81.5 -6.5t87.5 -21t70.5 -44t17.5 -68.5l-20 -98h-117l10 55q4 20 -8.5 35t-35 22t-44.5 10.5t-44 3.5q-124 0 -208 -92.5t-84 -210.5q0 -92 51.5 -149.5t143.5 -57.5q57 0 105.5 18 t56.5 54l10 53h119l-18 -91q-7 -39 -37.5 -69t-73.5 -46t-85.5 -23.5t-83.5 -7.5h-7l-20 -42q31 -2 51.5 -21t20.5 -49q0 -50 -43 -74.5t-96 -24.5q-15 0 -30.5 1.5t-23.5 3.5l-7 2l12 62q19 -7 45 -7q56 0 56 34q0 27 -52 27h-20z" />
<glyph unicode="&#xc8;" horiz-adv-x="642" d="M-6 0l19 98h84l101 513h-86l19 99h527l-35 -183h-112l15 78h-199l-38 -195h234l-21 -105h-233l-39 -200h213l16 80h112l-36 -185h-541zM385 757l-107 136h132l82 -136h-107z" />
<glyph unicode="&#xc9;" horiz-adv-x="642" d="M348 757l134 136h143l-161 -136h-116zM-6 0l19 98h84l101 513h-86l19 99h527l-35 -183h-112l15 78h-199l-38 -195h234l-21 -105h-233l-39 -200h213l16 80h112l-36 -185h-541z" />
<glyph unicode="&#xca;" horiz-adv-x="642" d="M260 757l120 136h130l65 -136h-102l-34 81h-2l-66 -81h-111zM-6 0l19 98h84l101 513h-86l19 99h527l-35 -183h-112l15 78h-199l-38 -195h234l-21 -105h-233l-39 -200h213l16 80h112l-36 -185h-541z" />
<glyph unicode="&#xcb;" horiz-adv-x="642" d="M483 777l24 116h104l-24 -116h-104zM266 777l23 116h104l-24 -116h-103zM-6 0l19 98h84l101 513h-86l19 99h527l-35 -183h-112l15 78h-199l-38 -195h234l-21 -105h-233l-39 -200h213l16 80h112l-36 -185h-541z" />
<glyph unicode="&#xcc;" horiz-adv-x="405" d="M-6 0l19 98h84l100 513h-85l19 99h302l-19 -99h-86l-100 -513h85l-19 -98h-300zM252 757l-107 136h132l82 -136h-107z" />
<glyph unicode="&#xcd;" horiz-adv-x="405" d="M-6 0l19 98h84l100 513h-85l19 99h302l-19 -99h-86l-100 -513h85l-19 -98h-300zM215 757l134 136h143l-161 -136h-116z" />
<glyph unicode="&#xce;" horiz-adv-x="405" d="M-6 0l19 98h84l100 513h-85l19 99h302l-19 -99h-86l-100 -513h85l-19 -98h-300zM127 757l120 136h130l65 -136h-102l-34 81h-2l-66 -81h-111z" />
<glyph unicode="&#xcf;" horiz-adv-x="405" d="M-6 0l19 98h84l100 513h-85l19 99h302l-19 -99h-86l-100 -513h85l-19 -98h-300zM350 777l24 116h104l-24 -116h-104zM133 777l23 116h104l-24 -116h-103z" />
<glyph unicode="&#xd0;" horiz-adv-x="785" d="M-6 0l19 98h84l40 203h-74l20 105h74l40 205h-85l19 99h306q150 0 234.5 -73.5t84.5 -205.5q0 -181 -118 -306t-300 -125h-344zM229 105h104q127 0 209 90.5t82 224.5q0 89 -51 137t-143 48h-103l-39 -199h138l-20 -105h-138z" />
<glyph unicode="&#xd1;" horiz-adv-x="848" d="M-6 0l19 98h84l101 513h-86l19 99h213l211 -462q4 -11 8 -25t5 -23l2 -9h3q3 37 9 63l70 357h-88l19 99h304l-19 -99h-85l-119 -611h-128l-213 462q-4 10 -8 24t-5 23l-2 9h-3q-2 -37 -7 -63l-70 -357h88l-19 -98h-303zM341 758q13 65 46 101t81 36q24 0 42 -10t26.5 -22 t19.5 -22t24 -10q35 0 47 61h89q-12 -64 -46 -100.5t-81 -36.5q-30 0 -49.5 16t-33.5 32t-29 16q-34 0 -47 -61h-89z" />
<glyph unicode="&#xd2;" horiz-adv-x="821" d="M50 300q0 112 59.5 209.5t158.5 155t210 57.5q140 0 227.5 -86t87.5 -219q0 -113 -60.5 -213t-159.5 -158t-209 -58q-139 0 -226.5 87.5t-87.5 224.5zM182 307q0 -91 53 -147.5t138 -56.5q110 0 198.5 91t88.5 215q0 88 -53 143t-138 55q-111 0 -199 -89t-88 -211z M461 757l-107 136h132l82 -136h-107z" />
<glyph unicode="&#xd3;" horiz-adv-x="821" d="M425 757l134 136h143l-161 -136h-116zM50 300q0 112 59.5 209.5t158.5 155t210 57.5q140 0 227.5 -86t87.5 -219q0 -113 -60.5 -213t-159.5 -158t-209 -58q-139 0 -226.5 87.5t-87.5 224.5zM182 307q0 -91 53 -147.5t138 -56.5q110 0 198.5 91t88.5 215q0 88 -53 143 t-138 55q-111 0 -199 -89t-88 -211z" />
<glyph unicode="&#xd4;" horiz-adv-x="821" d="M337 757l120 136h130l65 -136h-102l-34 81h-2l-66 -81h-111zM50 300q0 112 59.5 209.5t158.5 155t210 57.5q140 0 227.5 -86t87.5 -219q0 -113 -60.5 -213t-159.5 -158t-209 -58q-139 0 -226.5 87.5t-87.5 224.5zM182 307q0 -91 53 -147.5t138 -56.5q110 0 198.5 91 t88.5 215q0 88 -53 143t-138 55q-111 0 -199 -89t-88 -211z" />
<glyph unicode="&#xd5;" horiz-adv-x="821" d="M50 300q0 112 59.5 209.5t158.5 155t210 57.5q140 0 227.5 -86t87.5 -219q0 -113 -60.5 -213t-159.5 -158t-209 -58q-139 0 -226.5 87.5t-87.5 224.5zM182 307q0 -91 53 -147.5t138 -56.5q110 0 198.5 91t88.5 215q0 88 -53 143t-138 55q-111 0 -199 -89t-88 -211z M324 758q13 65 46 101t81 36q24 0 42 -10t26.5 -22t19.5 -22t24 -10q35 0 47 61h89q-12 -64 -46 -100.5t-81 -36.5q-30 0 -49.5 16t-33.5 32t-29 16q-34 0 -47 -61h-89z" />
<glyph unicode="&#xd6;" horiz-adv-x="821" d="M559 777l24 116h104l-24 -116h-104zM342 777l23 116h104l-24 -116h-103zM50 300q0 112 59.5 209.5t158.5 155t210 57.5q140 0 227.5 -86t87.5 -219q0 -113 -60.5 -213t-159.5 -158t-209 -58q-139 0 -226.5 87.5t-87.5 224.5zM182 307q0 -91 53 -147.5t138 -56.5 q110 0 198.5 91t88.5 215q0 88 -53 143t-138 55q-111 0 -199 -89t-88 -211z" />
<glyph unicode="&#xd7;" horiz-adv-x="619" d="M43 69l197 217l-197 216l69 70l195 -214l195 214l69 -70l-198 -216l198 -217l-69 -69l-195 214l-195 -214z" />
<glyph unicode="&#xd8;" horiz-adv-x="822" d="M58 17l68 74q-75 84 -75 209q0 111 59.5 209t157 155.5t204.5 57.5t189 -52l61 66l53 -43l-61 -66q81 -83 81 -210q0 -85 -36 -164.5t-94 -137t-135 -92.5t-156 -35q-117 0 -197 57l-66 -71zM218 190l355 386q-46 28 -102 28q-112 0 -199.5 -88t-87.5 -209q0 -69 34 -117 zM264 139q47 -33 111 -33q109 0 198 90t89 213q0 71 -38 120z" />
<glyph unicode="&#xd9;" horiz-adv-x="811" d="M102 201q0 30 11 85l63 325h-85l19 99h301l-19 -99h-85l-63 -325q-9 -52 -9 -69q0 -54 35 -84t97 -30q79 0 127 44q45 39 59 110l69 354h-85l19 99h301l-19 -99h-85l-71 -361q-26 -141 -128 -209q-79 -53 -190 -53q-114 0 -188 56.5t-74 156.5zM455 757l-107 136h132 l82 -136h-107z" />
<glyph unicode="&#xda;" horiz-adv-x="811" d="M419 757l134 136h143l-161 -136h-116zM102 201q0 30 11 85l63 325h-85l19 99h301l-19 -99h-85l-63 -325q-9 -52 -9 -69q0 -54 35 -84t97 -30q79 0 127 44q45 39 59 110l69 354h-85l19 99h301l-19 -99h-85l-71 -361q-26 -141 -128 -209q-79 -53 -190 -53q-114 0 -188 56.5 t-74 156.5z" />
<glyph unicode="&#xdb;" horiz-adv-x="811" d="M331 757l120 136h130l65 -136h-102l-34 81h-2l-66 -81h-111zM102 201q0 30 11 85l63 325h-85l19 99h301l-19 -99h-85l-63 -325q-9 -52 -9 -69q0 -54 35 -84t97 -30q79 0 127 44q45 39 59 110l69 354h-85l19 99h301l-19 -99h-85l-71 -361q-26 -141 -128 -209 q-79 -53 -190 -53q-114 0 -188 56.5t-74 156.5z" />
<glyph unicode="&#xdc;" horiz-adv-x="811" d="M554 777l24 116h104l-24 -116h-104zM337 777l23 116h104l-24 -116h-103zM102 201q0 30 11 85l63 325h-85l19 99h301l-19 -99h-85l-63 -325q-9 -52 -9 -69q0 -54 35 -84t97 -30q79 0 127 44q45 39 59 110l69 354h-85l19 99h301l-19 -99h-85l-71 -361q-26 -141 -128 -209 q-79 -53 -190 -53q-114 0 -188 56.5t-74 156.5z" />
<glyph unicode="&#xdd;" horiz-adv-x="658" d="M120 0l19 98h85l39 199l-128 314h-64l19 99h258l-19 -99h-68l71 -186l9 -32h2q9 15 22 32l145 186h-69l19 99h268l-19 -99h-64l-251 -314l-39 -199h86l-19 -98h-302zM346 757l134 136h143l-161 -136h-116z" />
<glyph unicode="&#xde;" horiz-adv-x="662" d="M-6 0l19 98h84l101 513h-86l19 99h302l-19 -99h-88l-12 -61h151q89 0 138.5 -43t49.5 -116q0 -99 -72 -158.5t-182 -59.5h-158l-15 -75h88l-19 -98h-301zM259 271h126q61 0 98 30t37 84q0 67 -98 67h-127z" />
<glyph unicode="&#xdf;" horiz-adv-x="617" d="M22 0l104 538q17 86 89 135t159 49q85 0 139 -43t54 -110q0 -40 -19.5 -72.5t-43 -50.5t-43 -39.5t-19.5 -40.5q0 -20 19 -42t41.5 -40.5t41.5 -49t19 -64.5q0 -74 -60 -125.5t-139 -51.5q-41 0 -77 6.5t-51 12.5l-16 7l22 105q44 -23 111 -23q31 0 57 17t26 51 q0 22 -19.5 46t-42.5 41.5t-42.5 44.5t-19.5 56q0 34 20 64.5t43.5 49t43.5 42t20 45.5q0 24 -18 40t-52 16q-43 0 -76.5 -23.5t-42.5 -70.5l-101 -520h-127z" />
<glyph unicode="&#xe0;" d="M-5 119q0 55 33 95.5t86.5 61t108 30t110.5 9.5h18q6 28 6 42q0 63 -81 63q-33 0 -71 -12t-59 -24l-22 -11l-29 94q11 6 29.5 15t72.5 24.5t103 15.5q77 0 130 -36.5t53 -114.5q0 -31 -21 -124t-21 -113q0 -41 43 -41l22 2l-18 -95q-16 -3 -53 -3q-109 0 -119 86h-2 q1 0 -6.5 -10t-22.5 -23.5t-35 -27.5t-49 -24t-60 -10q-62 0 -104 34.5t-42 96.5zM121 140q0 -58 63 -58q49 0 92 44.5t56 95.5l4 16h-22q-28 0 -55.5 -3.5t-61.5 -12.5t-55 -30t-21 -52zM282 573l-107 136h132l82 -136h-107z" />
<glyph unicode="&#xe1;" d="M-5 119q0 55 33 95.5t86.5 61t108 30t110.5 9.5h18q6 28 6 42q0 63 -81 63q-33 0 -71 -12t-59 -24l-22 -11l-29 94q11 6 29.5 15t72.5 24.5t103 15.5q77 0 130 -36.5t53 -114.5q0 -31 -21 -124t-21 -113q0 -41 43 -41l22 2l-18 -95q-16 -3 -53 -3q-109 0 -119 86h-2 q1 0 -6.5 -10t-22.5 -23.5t-35 -27.5t-49 -24t-60 -10q-62 0 -104 34.5t-42 96.5zM121 140q0 -58 63 -58q49 0 92 44.5t56 95.5l4 16h-22q-28 0 -55.5 -3.5t-61.5 -12.5t-55 -30t-21 -52zM246 573l134 136h143l-161 -136h-116z" />
<glyph unicode="&#xe2;" d="M-5 119q0 55 33 95.5t86.5 61t108 30t110.5 9.5h18q6 28 6 42q0 63 -81 63q-33 0 -71 -12t-59 -24l-22 -11l-29 94q11 6 29.5 15t72.5 24.5t103 15.5q77 0 130 -36.5t53 -114.5q0 -31 -21 -124t-21 -113q0 -41 43 -41l22 2l-18 -95q-16 -3 -53 -3q-109 0 -119 86h-2 q1 0 -6.5 -10t-22.5 -23.5t-35 -27.5t-49 -24t-60 -10q-62 0 -104 34.5t-42 96.5zM121 140q0 -58 63 -58q49 0 92 44.5t56 95.5l4 16h-22q-28 0 -55.5 -3.5t-61.5 -12.5t-55 -30t-21 -52zM158 573l120 136h130l65 -136h-102l-34 81h-2l-66 -81h-111z" />
<glyph unicode="&#xe3;" d="M-5 119q0 55 33 95.5t86.5 61t108 30t110.5 9.5h18q6 28 6 42q0 63 -81 63q-33 0 -71 -12t-59 -24l-22 -11l-29 94q11 6 29.5 15t72.5 24.5t103 15.5q77 0 130 -36.5t53 -114.5q0 -31 -21 -124t-21 -113q0 -41 43 -41l22 2l-18 -95q-16 -3 -53 -3q-109 0 -119 86h-2 q1 0 -6.5 -10t-22.5 -23.5t-35 -27.5t-49 -24t-60 -10q-62 0 -104 34.5t-42 96.5zM121 140q0 -58 63 -58q49 0 92 44.5t56 95.5l4 16h-22q-28 0 -55.5 -3.5t-61.5 -12.5t-55 -30t-21 -52zM146 574q13 65 46 101t81 36q24 0 42 -10t26.5 -22t19.5 -22t24 -10q35 0 47 61h89 q-12 -64 -46 -100.5t-81 -36.5q-30 0 -49.5 16t-33.5 32t-29 16q-34 0 -47 -61h-89z" />
<glyph unicode="&#xe4;" d="M-5 119q0 55 33 95.5t86.5 61t108 30t110.5 9.5h18q6 28 6 42q0 63 -81 63q-33 0 -71 -12t-59 -24l-22 -11l-29 94q11 6 29.5 15t72.5 24.5t103 15.5q77 0 130 -36.5t53 -114.5q0 -31 -21 -124t-21 -113q0 -41 43 -41l22 2l-18 -95q-16 -3 -53 -3q-109 0 -119 86h-2 q1 0 -6.5 -10t-22.5 -23.5t-35 -27.5t-49 -24t-60 -10q-62 0 -104 34.5t-42 96.5zM121 140q0 -58 63 -58q49 0 92 44.5t56 95.5l4 16h-22q-28 0 -55.5 -3.5t-61.5 -12.5t-55 -30t-21 -52zM381 593l24 116h104l-24 -116h-104zM164 593l23 116h104l-24 -116h-103z" />
<glyph unicode="&#xe5;" d="M-5 119q0 55 33 95.5t86.5 61t108 30t110.5 9.5h18q6 28 6 42q0 63 -81 63q-33 0 -71 -12t-59 -24l-22 -11l-29 94q11 6 29.5 15t72.5 24.5t103 15.5q77 0 130 -36.5t53 -114.5q0 -31 -21 -124t-21 -113q0 -41 43 -41l22 2l-18 -95q-16 -3 -53 -3q-109 0 -119 86h-2 q1 0 -6.5 -10t-22.5 -23.5t-35 -27.5t-49 -24t-60 -10q-62 0 -104 34.5t-42 96.5zM121 140q0 -58 63 -58q49 0 92 44.5t56 95.5l4 16h-22q-28 0 -55.5 -3.5t-61.5 -12.5t-55 -30t-21 -52zM322 558q-37 0 -62 18.5t-25 51.5q0 42 33.5 67.5t75.5 25.5q37 0 63 -19t26 -53 q0 -41 -34.5 -66t-76.5 -25zM326 603q19 0 31.5 13t12.5 32q0 28 -29 28q-17 0 -30 -13t-13 -33q0 -27 28 -27z" />
<glyph unicode="&#xe6;" horiz-adv-x="858" d="M-2 125q0 56 31.5 95.5t83.5 58.5t100.5 26.5t100.5 7.5h36q4 20 4 38q0 69 -83 69q-36 0 -73 -12t-56 -24l-19 -11l-31 94q11 6 29.5 15t71 24.5t100.5 15.5q105 0 150 -73h2q75 73 174 73t151.5 -52.5t52.5 -141.5q0 -19 -4 -41.5t-8 -36.5l-4 -13h-348q-3 -12 -3 -26 q0 -54 33.5 -86.5t92.5 -32.5q36 0 75 14t60 28l21 14l34 -93q-10 -8 -27.5 -19t-69.5 -29.5t-102 -18.5q-76 0 -130 29.5t-81 81.5h-2q-6 -12 -18.5 -27t-36 -36t-61.5 -34.5t-83 -13.5q-68 0 -115.5 37.5t-47.5 99.5zM477 313h220q1 15 1 28q0 39 -22.5 61t-58.5 22 q-48 0 -85 -29.5t-55 -81.5zM126 140q0 -23 17 -38t49 -15q48 0 89.5 42t51.5 92l3 15h-35q-27 0 -52.5 -3t-55.5 -12t-48.5 -30t-18.5 -51z" />
<glyph unicode="&#xe7;" horiz-adv-x="565" d="M159 -100l46 96q-86 17 -134 75.5t-48 142.5q0 122 94 215t233 93q46 0 89.5 -10.5t76 -41.5t23.5 -76l-12 -64h-110l7 32q4 24 -22 38t-63 14q-77 0 -132 -58t-55 -133q0 -57 35.5 -92.5t100.5 -35.5q43 0 85.5 16t63.5 32l21 16l34 -96q-3 -3 -9 -8t-27 -18t-44.5 -23 t-60 -18t-75.5 -8h-11l-19 -42q31 -2 51.5 -21t20.5 -49q0 -50 -43 -74.5t-97 -24.5q-15 0 -30 1.5t-22 3.5l-8 2l12 62q19 -7 45 -7q56 0 56 34q0 27 -52 27h-20z" />
<glyph unicode="&#xe8;" horiz-adv-x="558" d="M24 207q0 131 85 223t211 92q99 0 151 -52.5t52 -140.5q0 -20 -4.5 -43t-8.5 -36l-4 -13h-351q-3 -12 -3 -26q0 -51 34 -83.5t94 -32.5q36 0 75.5 14t60.5 28l22 14l34 -96q-10 -8 -27.5 -19t-70 -29.5t-102.5 -18.5q-116 0 -182 62t-66 157zM172 312h224q2 16 2 28 q0 39 -22 61.5t-59 22.5q-48 0 -87 -30.5t-58 -81.5zM308 573l-107 136h132l82 -136h-107z" />
<glyph unicode="&#xe9;" horiz-adv-x="558" d="M272 573l134 136h143l-161 -136h-116zM24 207q0 131 85 223t211 92q99 0 151 -52.5t52 -140.5q0 -20 -4.5 -43t-8.5 -36l-4 -13h-351q-3 -12 -3 -26q0 -51 34 -83.5t94 -32.5q36 0 75.5 14t60.5 28l22 14l34 -96q-10 -8 -27.5 -19t-70 -29.5t-102.5 -18.5q-116 0 -182 62 t-66 157zM172 312h224q2 16 2 28q0 39 -22 61.5t-59 22.5q-48 0 -87 -30.5t-58 -81.5z" />
<glyph unicode="&#xea;" horiz-adv-x="558" d="M184 573l120 136h130l65 -136h-102l-34 81h-2l-66 -81h-111zM24 207q0 131 85 223t211 92q99 0 151 -52.5t52 -140.5q0 -20 -4.5 -43t-8.5 -36l-4 -13h-351q-3 -12 -3 -26q0 -51 34 -83.5t94 -32.5q36 0 75.5 14t60.5 28l22 14l34 -96q-10 -8 -27.5 -19t-70 -29.5 t-102.5 -18.5q-116 0 -182 62t-66 157zM172 312h224q2 16 2 28q0 39 -22 61.5t-59 22.5q-48 0 -87 -30.5t-58 -81.5z" />
<glyph unicode="&#xeb;" horiz-adv-x="558" d="M407 593l24 116h104l-24 -116h-104zM190 593l23 116h104l-24 -116h-103zM24 207q0 131 85 223t211 92q99 0 151 -52.5t52 -140.5q0 -20 -4.5 -43t-8.5 -36l-4 -13h-351q-3 -12 -3 -26q0 -51 34 -83.5t94 -32.5q36 0 75.5 14t60.5 28l22 14l34 -96q-10 -8 -27.5 -19 t-70 -29.5t-102.5 -18.5q-116 0 -182 62t-66 157zM172 312h224q2 16 2 28q0 39 -22 61.5t-59 22.5q-48 0 -87 -30.5t-58 -81.5z" />
<glyph unicode="&#xec;" horiz-adv-x="338" d="M71 103q0 22 6 52l51 260h-79l19 95h205l-67 -345q-4 -20 -4 -31q0 -41 43 -41l22 2l-18 -95q-23 -3 -45 -3q-28 0 -47.5 3t-41 13t-33 32.5t-11.5 57.5zM184 573l-107 136h132l82 -136h-107z" />
<glyph unicode="&#xed;" horiz-adv-x="338" d="M148 573l134 136h143l-161 -136h-116zM71 103q0 22 6 52l51 260h-79l19 95h205l-67 -345q-4 -20 -4 -31q0 -41 43 -41l22 2l-18 -95q-23 -3 -45 -3q-28 0 -47.5 3t-41 13t-33 32.5t-11.5 57.5z" />
<glyph unicode="&#xee;" horiz-adv-x="338" d="M60 573l120 136h130l65 -136h-102l-34 81h-2l-66 -81h-111zM71 103q0 22 6 52l51 260h-79l19 95h205l-67 -345q-4 -20 -4 -31q0 -41 43 -41l22 2l-18 -95q-23 -3 -45 -3q-28 0 -47.5 3t-41 13t-33 32.5t-11.5 57.5z" />
<glyph unicode="&#xef;" horiz-adv-x="338" d="M71 103q0 22 6 52l51 260h-79l19 95h205l-67 -345q-4 -20 -4 -31q0 -41 43 -41l22 2l-18 -95q-23 -3 -45 -3q-28 0 -47.5 3t-41 13t-33 32.5t-11.5 57.5zM269 593l23 117h104l-23 -117h-104zM79 593l24 117h104l-24 -117h-104z" />
<glyph unicode="&#xf0;" horiz-adv-x="596" d="M22 195q0 105 78.5 187.5t202.5 82.5q29 0 55 -8.5t38 -16.5l11 -9h2q-15 66 -80 119l-198 -78l7 64l132 52q-59 32 -116 46l52 92q115 -30 196 -88l163 64l-6 -64l-110 -43q97 -100 97 -246q0 -44 -10 -91t-33.5 -95.5t-57.5 -87t-86 -63t-114 -24.5q-107 0 -165 59 t-58 148zM151 197q0 -45 23.5 -73.5t71.5 -28.5q70 0 116 59.5t46 124.5q0 40 -26 63.5t-73 23.5q-70 0 -114 -50t-44 -119z" />
<glyph unicode="&#xf1;" horiz-adv-x="683" d="M51 0l77 393q3 22 -18 22h-57l18 95h134q57 0 57 -45q0 -30 -12 -57h2q14 30 69 72t134 42q66 0 104.5 -35.5t38.5 -102.5q0 -34 -20.5 -133t-20.5 -117q0 -41 43 -41l22 2l-18 -95q-19 -3 -51 -3q-24 0 -42.5 3t-39.5 13t-32.5 32.5t-11.5 56.5q0 28 19.5 125t19.5 118 q0 61 -65 61q-64 0 -114.5 -53.5t-64.5 -128.5l-44 -224h-127zM234 574q13 65 46 101t81 36q24 0 42 -10t26.5 -22t19.5 -22t24 -10q35 0 47 61h89q-12 -64 -46 -100.5t-81 -36.5q-30 0 -49.5 16t-33.5 32t-29 16q-34 0 -47 -61h-89z" />
<glyph unicode="&#xf2;" horiz-adv-x="629" d="M23 214q0 130 97.5 219t226.5 89q106 0 174 -62.5t68 -162.5q0 -131 -98 -220t-226 -89q-106 0 -174 62.5t-68 163.5zM152 220q0 -56 34 -90t89 -34q71 0 128 55.5t57 137.5q0 56 -34.5 90.5t-88.5 34.5q-71 0 -128 -56.5t-57 -137.5zM331 573l-107 136h132l82 -136h-107 z" />
<glyph unicode="&#xf3;" horiz-adv-x="629" d="M294 573l134 136h143l-161 -136h-116zM23 214q0 130 97.5 219t226.5 89q106 0 174 -62.5t68 -162.5q0 -131 -98 -220t-226 -89q-106 0 -174 62.5t-68 163.5zM152 220q0 -56 34 -90t89 -34q71 0 128 55.5t57 137.5q0 56 -34.5 90.5t-88.5 34.5q-71 0 -128 -56.5 t-57 -137.5z" />
<glyph unicode="&#xf4;" horiz-adv-x="629" d="M206 573l120 136h130l65 -136h-102l-34 81h-2l-66 -81h-111zM23 214q0 130 97.5 219t226.5 89q106 0 174 -62.5t68 -162.5q0 -131 -98 -220t-226 -89q-106 0 -174 62.5t-68 163.5zM152 220q0 -56 34 -90t89 -34q71 0 128 55.5t57 137.5q0 56 -34.5 90.5t-88.5 34.5 q-71 0 -128 -56.5t-57 -137.5z" />
<glyph unicode="&#xf5;" horiz-adv-x="629" d="M23 214q0 130 97.5 219t226.5 89q106 0 174 -62.5t68 -162.5q0 -131 -98 -220t-226 -89q-106 0 -174 62.5t-68 163.5zM152 220q0 -56 34 -90t89 -34q71 0 128 55.5t57 137.5q0 56 -34.5 90.5t-88.5 34.5q-71 0 -128 -56.5t-57 -137.5zM194 574q13 65 46 101t81 36 q24 0 42 -10t26.5 -22t19.5 -22t24 -10q35 0 47 61h89q-12 -64 -46 -100.5t-81 -36.5q-30 0 -49.5 16t-33.5 32t-29 16q-34 0 -47 -61h-89z" />
<glyph unicode="&#xf6;" horiz-adv-x="629" d="M429 593l24 116h104l-24 -116h-104zM212 593l23 116h104l-24 -116h-103zM23 214q0 130 97.5 219t226.5 89q106 0 174 -62.5t68 -162.5q0 -131 -98 -220t-226 -89q-106 0 -174 62.5t-68 163.5zM152 220q0 -56 34 -90t89 -34q71 0 128 55.5t57 137.5q0 56 -34.5 90.5 t-88.5 34.5q-71 0 -128 -56.5t-57 -137.5z" />
<glyph unicode="&#xf7;" horiz-adv-x="619" d="M249 437v108h114v-108h-114zM45 236v99h522v-99h-522zM249 27v108h114v-108h-114z" />
<glyph unicode="&#xf8;" horiz-adv-x="629" d="M33 -1l53 57q-63 66 -63 158q0 129 96 218.5t219 89.5q82 0 145 -37l57 61l46 -39l-56 -60q59 -64 59 -150q0 -130 -96.5 -219.5t-218.5 -89.5q-76 0 -138 32l-58 -61zM174 150l228 247q-31 17 -65 17q-71 0 -128 -56.5t-57 -137.5q0 -40 22 -70zM218 109q24 -13 57 -13 q71 0 128 55.5t57 137.5q0 30 -19 62z" />
<glyph unicode="&#xf9;" horiz-adv-x="679" d="M71 125q0 23 7 61l44 229h-79l19 95h206l-59 -302q-6 -34 -6 -47q0 -60 64 -60q63 0 113 55t63 124l26 135h-79l19 95h206l-68 -345q-3 -15 -3 -31q0 -41 43 -41l21 2l-18 -95q-23 -3 -54 -3q-116 0 -116 105h-2q-77 -114 -200 -114q-65 0 -106 34t-41 103zM335 573 l-107 136h132l82 -136h-107z" />
<glyph unicode="&#xfa;" horiz-adv-x="679" d="M299 573l134 136h143l-161 -136h-116zM71 125q0 23 7 61l44 229h-79l19 95h206l-59 -302q-6 -34 -6 -47q0 -60 64 -60q63 0 113 55t63 124l26 135h-79l19 95h206l-68 -345q-3 -15 -3 -31q0 -41 43 -41l21 2l-18 -95q-23 -3 -54 -3q-116 0 -116 105h-2q-77 -114 -200 -114 q-65 0 -106 34t-41 103z" />
<glyph unicode="&#xfb;" horiz-adv-x="679" d="M211 573l120 136h130l65 -136h-102l-34 81h-2l-66 -81h-111zM71 125q0 23 7 61l44 229h-79l19 95h206l-59 -302q-6 -34 -6 -47q0 -60 64 -60q63 0 113 55t63 124l26 135h-79l19 95h206l-68 -345q-3 -15 -3 -31q0 -41 43 -41l21 2l-18 -95q-23 -3 -54 -3q-116 0 -116 105 h-2q-77 -114 -200 -114q-65 0 -106 34t-41 103z" />
<glyph unicode="&#xfc;" horiz-adv-x="679" d="M433 593l24 116h104l-24 -116h-104zM216 593l23 116h104l-24 -116h-103zM71 125q0 23 7 61l44 229h-79l19 95h206l-59 -302q-6 -34 -6 -47q0 -60 64 -60q63 0 113 55t63 124l26 135h-79l19 95h206l-68 -345q-3 -15 -3 -31q0 -41 43 -41l21 2l-18 -95q-23 -3 -54 -3 q-116 0 -116 105h-2q-77 -114 -200 -114q-65 0 -106 34t-41 103z" />
<glyph unicode="&#xfd;" horiz-adv-x="606" d="M-11 -84q25 -22 73 -22q64 0 101 59l20 32l-91 430h-61l18 95h247l-18 -95h-60l43 -258q2 -11 2 -24.5t-1 -20.5l-1 -8h3q10 28 24 53l143 258h-59l19 95h244l-18 -95h-59l-281 -481q-84 -144 -218 -144q-36 0 -68 9t-45 19l-14 9zM281 573l134 136h143l-161 -136h-116z " />
<glyph unicode="&#xfe;" horiz-adv-x="625" d="M-17 -200l158 815h-78l18 95h204l-44 -225l-10 -37h2q60 74 156 74q91 0 142.5 -58t51.5 -157q0 -137 -84.5 -228t-193.5 -91q-45 0 -85 19t-60 56h-2q-2 -20 -7 -46l-43 -217h-125zM190 210q0 -50 25.5 -82.5t74.5 -32.5q62 0 112.5 56t50.5 147q0 54 -26.5 84.5 t-73.5 30.5q-64 0 -113.5 -60.5t-49.5 -142.5z" />
<glyph unicode="&#xff;" horiz-adv-x="606" d="M-11 -84q25 -22 73 -22q64 0 101 59l20 32l-91 430h-61l18 95h247l-18 -95h-60l43 -258q2 -11 2 -24.5t-1 -20.5l-1 -8h3q10 28 24 53l143 258h-59l19 95h244l-18 -95h-59l-281 -481q-84 -144 -218 -144q-36 0 -68 9t-45 19l-14 9zM416 593l24 116h104l-24 -116h-104z M199 593l23 116h104l-24 -116h-103z" />
<glyph unicode="&#x152;" horiz-adv-x="991" d="M50 298q0 112 60 209.5t157.5 154t205.5 56.5q38 0 84 -4t67 -4h384l-36 -183h-106l16 78h-202l-39 -196h231l-21 -104h-230l-39 -200h217l15 78h106l-36 -183h-385q-17 0 -57.5 -4.5t-70.5 -4.5q-143 0 -232 86t-89 221zM183 300q0 -89 53.5 -145t142.5 -56q19 0 37 1.5 t27 3.5l9 2l96 497q-28 8 -69 8q-118 0 -207 -92.5t-89 -218.5z" />
<glyph unicode="&#x153;" horiz-adv-x="989" d="M24 214q0 130 95 219t222 89q132 0 198 -105h2q82 105 210 105q99 0 151 -52.5t52 -140.5q0 -20 -4 -43t-8 -36l-5 -14h-351q-2 -12 -2 -26q0 -51 34 -82.5t93 -31.5q36 0 75.5 14t61.5 28l21 14l34 -97q-10 -8 -27.5 -19t-69.5 -29.5t-102 -18.5q-145 0 -204 107h-2 q-44 -50 -103.5 -78.5t-121.5 -28.5q-110 0 -179.5 62.5t-69.5 163.5zM604 313h224q2 15 2 27q0 39 -22 61.5t-59 22.5q-49 0 -87.5 -30t-57.5 -81zM153 220q0 -56 34 -90t89 -34q71 0 128 55.5t57 137.5q0 56 -34.5 90.5t-88.5 34.5q-74 0 -129.5 -56t-55.5 -138z" />
<glyph unicode="&#x178;" horiz-adv-x="658" d="M120 0l19 98h85l39 199l-128 314h-64l19 99h258l-19 -99h-68l71 -186l9 -32h2q9 15 22 32l145 186h-69l19 99h268l-19 -99h-64l-251 -314l-39 -199h86l-19 -98h-302zM481 777l24 116h104l-24 -116h-104zM264 777l23 116h104l-24 -116h-103z" />
<glyph unicode="&#x2c6;" horiz-adv-x="494" d="M17 757l120 136h130l65 -136h-102l-34 81h-2l-66 -81h-111z" />
<glyph unicode="&#x2dc;" horiz-adv-x="493" d="M2 758q13 65 46 101t81 36q24 0 42 -10t26.5 -22t19.5 -22t24 -10q35 0 47 61h89q-12 -64 -46 -100.5t-81 -36.5q-30 0 -49.5 16t-33.5 32t-29 16q-34 0 -47 -61h-89z" />
<glyph unicode="&#x2000;" horiz-adv-x="452" />
<glyph unicode="&#x2001;" horiz-adv-x="905" />
<glyph unicode="&#x2002;" horiz-adv-x="452" />
<glyph unicode="&#x2003;" horiz-adv-x="905" />
<glyph unicode="&#x2004;" horiz-adv-x="301" />
<glyph unicode="&#x2005;" horiz-adv-x="226" />
<glyph unicode="&#x2006;" horiz-adv-x="150" />
<glyph unicode="&#x2007;" horiz-adv-x="150" />
<glyph unicode="&#x2008;" horiz-adv-x="113" />
<glyph unicode="&#x2009;" horiz-adv-x="181" />
<glyph unicode="&#x200a;" horiz-adv-x="50" />
<glyph unicode="&#x2010;" horiz-adv-x="466" d="M69 230l21 111h301l-21 -111h-301z" />
<glyph unicode="&#x2011;" horiz-adv-x="466" d="M69 230l21 111h301l-21 -111h-301z" />
<glyph unicode="&#x2012;" horiz-adv-x="466" d="M69 230l21 111h301l-21 -111h-301z" />
<glyph unicode="&#x2013;" horiz-adv-x="719" d="M70 236l19 99h553l-18 -99h-554z" />
<glyph unicode="&#x2014;" horiz-adv-x="919" d="M70 236l19 99h753l-18 -99h-754z" />
<glyph unicode="&#x2018;" horiz-adv-x="248" d="M78 490l122 232h94l-94 -232h-122z" />
<glyph unicode="&#x2019;" horiz-adv-x="243" d="M83 490l94 232h122l-122 -232h-94z" />
<glyph unicode="&#x201a;" horiz-adv-x="271" d="M-41 -103l95 232h122l-122 -232h-95z" />
<glyph unicode="&#x201c;" horiz-adv-x="415" d="M245 490l122 232h94l-94 -232h-122zM78 490l122 232h94l-94 -232h-122z" />
<glyph unicode="&#x201d;" horiz-adv-x="410" d="M249 490l95 232h122l-122 -232h-95zM83 490l94 232h122l-122 -232h-94z" />
<glyph unicode="&#x201e;" horiz-adv-x="438" d="M221 129h122l-123 -232h-94zM54 129h122l-122 -232h-95z" />
<glyph unicode="&#x2022;" horiz-adv-x="428" d="M212 124q-70 0 -118.5 49t-48.5 118t48.5 118t118.5 49q69 0 118 -49t49 -118t-49 -118t-118 -49z" />
<glyph unicode="&#x2026;" horiz-adv-x="836" d="M584 0l25 128h124l-25 -128h-124zM299 0l25 128h124l-25 -128h-124zM15 0l24 128h124l-25 -128h-123z" />
<glyph unicode="&#x202f;" horiz-adv-x="181" />
<glyph unicode="&#x2039;" horiz-adv-x="367" d="M163 77l-129 206l191 205h126l-201 -211l129 -200h-116z" />
<glyph unicode="&#x203a;" horiz-adv-x="370" d="M12 77l201 211l-128 200h116l129 -206l-191 -205h-127z" />
<glyph unicode="&#x205f;" horiz-adv-x="226" />
<glyph unicode="&#x20ac;" horiz-adv-x="607" d="M30 243l15 73h55q3 36 13 82h-53l15 73h62q51 112 152 181.5t222 69.5q31 0 62.5 -5t46.5 -9l16 -5l-50 -104q-39 10 -78 10q-71 0 -131 -36.5t-97 -101.5h257l-31 -73h-259q-11 -44 -13 -82h242l-30 -73h-202q11 -64 55.5 -102t117.5 -38q22 0 45.5 3.5t36.5 7.5l13 3 l1 -113q-44 -16 -107 -16q-122 0 -205 70t-97 185h-74z" />
<glyph unicode="&#x2122;" horiz-adv-x="1046" d="M518 267l35 443h88l92 -209l13 -42h2q7 25 14 42l92 209h88l34 -443h-96l-16 228l1 31h-2l-78 -178h-75l-78 178h-2l1 -31l-18 -228h-95zM248 267v359h-148v84h391v-84h-147v-359h-96z" />
<glyph unicode="&#x25fc;" horiz-adv-x="510" d="M0 510h510v-510h-510v510z" />
</font>
</defs>
</svg>
