<svg id="Layer_1" data-name="Layer 1" xmlns="http://www.w3.org/2000/svg" xmlns:xlink="http://www.w3.org/1999/xlink" viewBox="0 0 286.88 35.66"><defs><style>.cls-1{fill:none;}.cls-2{clip-path:url(#clip-path);}.cls-3{fill:url(#linear-gradient);}.cls-4{clip-path:url(#clip-path-2);}.cls-5{fill:url(#linear-gradient-2);}.cls-6{clip-path:url(#clip-path-3);}.cls-7{fill:url(#linear-gradient-3);}.cls-8{clip-path:url(#clip-path-4);}.cls-9{fill:url(#linear-gradient-4);}.cls-10{clip-path:url(#clip-path-5);}.cls-11{fill:url(#linear-gradient-5);}.cls-12{clip-path:url(#clip-path-6);}.cls-13{fill:url(#linear-gradient-6);}.cls-14{clip-path:url(#clip-path-7);}.cls-15{fill:#fff;}.cls-16{fill:#fcfcfc;}</style><clipPath id="clip-path"><polygon class="cls-1" points="15.27 0 0 8.82 0 8.82 30.56 8.82 15.29 0 15.27 0"/></clipPath><linearGradient id="linear-gradient" x1="0.02" y1="35.68" x2="1.02" y2="35.68" gradientTransform="translate(23.08 637.39) rotate(-180) scale(17.74)" gradientUnits="userSpaceOnUse"><stop offset="0" stop-color="#f15a22"/><stop offset="1" stop-color="#faa61a"/></linearGradient><clipPath id="clip-path-2"><polygon class="cls-1" points="0 26.46 15.28 35.28 30.56 26.46 0 26.46"/></clipPath><linearGradient id="linear-gradient-2" x1="-0.02" y1="35.64" x2="0.98" y2="35.64" gradientTransform="translate(-513.46 37.15) rotate(-90) scale(14.83)" xlink:href="#linear-gradient"/><clipPath id="clip-path-3"><polygon class="cls-1" points="15.28 35.28 15.28 35.28 30.56 26.46 30.56 8.82 15.28 35.28"/></clipPath><linearGradient id="linear-gradient-3" x1="0.01" y1="35.63" x2="1.01" y2="35.63" gradientTransform="matrix(0, -16.02, 16.02, 0, -547.69, 31.6)" xlink:href="#linear-gradient"/><clipPath id="clip-path-4"><polygon class="cls-1" points="0 26.46 15.28 35.28 0 8.82 0 26.46"/></clipPath><linearGradient id="linear-gradient-4" y1="35.69" x2="1" y2="35.69" gradientTransform="translate(-2.49 -578.91) scale(16.84)" gradientUnits="userSpaceOnUse"><stop offset="0" stop-color="#f15a22"/><stop offset="0.17" stop-color="#f15a22"/><stop offset="1" stop-color="#faa61a"/></linearGradient><clipPath id="clip-path-5"><polygon class="cls-1" points="15.27 0 0 8.82 0 26.46 15.28 0 15.27 0"/></clipPath><linearGradient id="linear-gradient-5" x1="-0.02" y1="35.64" x2="0.98" y2="35.64" gradientTransform="translate(341.84 2.64) rotate(90) scale(9.38)" xlink:href="#linear-gradient"/><clipPath id="clip-path-6"><polygon class="cls-1" points="15.28 0 30.56 26.46 30.56 8.82 15.28 0"/></clipPath><linearGradient id="linear-gradient-6" x1="-0.02" y1="35.66" x2="0.98" y2="35.66" gradientTransform="matrix(-10.99, 0, 0, -10.99, 31.76, 405.08)" gradientUnits="userSpaceOnUse"><stop offset="0" stop-color="#f15a22"/><stop offset="0.17" stop-color="#f15a22"/><stop offset="0.25" stop-color="#f36821"/><stop offset="0.43" stop-color="#f6831e"/><stop offset="0.62" stop-color="#f8961c"/><stop offset="0.81" stop-color="#faa21a"/><stop offset="1" stop-color="#faa61a"/></linearGradient><clipPath id="clip-path-7"><rect class="cls-1" width="286.88" height="35.66"/></clipPath></defs><title>SP_logo_white</title><g class="cls-2"><rect class="cls-3" x="9.7" y="-11.17" width="11.16" height="31.15" transform="translate(9.7 19.3) rotate(-85.55)"/></g><g class="cls-4"><rect class="cls-5" y="26.46" width="30.56" height="8.82"/></g><g class="cls-6"><rect class="cls-7" x="8.05" y="10.92" width="29.75" height="22.27" transform="translate(-4.8 37.63) rotate(-73.23)"/></g><g class="cls-8"><rect class="cls-9" x="-2.48" y="7.56" width="20.23" height="28.97" transform="matrix(0.98, -0.2, 0.2, 0.98, -4.23, 1.96)"/></g><g class="cls-10"><rect class="cls-11" x="-7.06" y="2.59" width="29.39" height="21.28" transform="translate(-7.06 17.4) rotate(-75.86)"/></g><g class="cls-12"><rect class="cls-13" x="9.98" y="-2.04" width="25.89" height="30.54" transform="translate(-3.53 12.26) rotate(-27.9)"/></g><g class="cls-14"><path class="cls-15" d="M44.65,21.26s2.72,2.49,5.74,2.49c1.21,0,2.52-.47,2.52-1.91,0-2.85-10.81-2.75-10.81-10.14,0-4.43,3.73-7.35,8.49-7.35,5.17,0,7.72,2.72,7.72,2.72l-2.48,4.8a9.16,9.16,0,0,0-5.31-2.11c-1.21,0-2.55.54-2.55,1.88,0,3,10.81,2.48,10.81,10.07,0,4-3.06,7.45-8.46,7.45a12.39,12.39,0,0,1-8.76-3.42Z"/><path class="cls-15" d="M64.12,4.74H70V19.92c0,2.52,1.65,3.86,4.16,3.86s4.16-1.34,4.16-3.86V4.74H84.2V19.92c0,5.41-4,9.23-10,9.23s-10.07-3.83-10.07-9.23V4.74Z"/><path class="cls-15" d="M91.15,4.74h8.36a12.43,12.43,0,0,1,4.67.57c2.72,1,4.43,3.49,4.43,7A7.31,7.31,0,0,1,105,18.84v0.07a13.8,13.8,0,0,1,.91,1.44l4.67,8.39H104l-4.26-8.09H97v8.09H91.15v-24Zm8.43,10.88a2.75,2.75,0,0,0,3.06-3c0-1.81-.67-2.89-3.63-2.89H97v5.84h2.55Z"/><polygon class="cls-15" points="115.7 4.74 130.74 4.74 130.74 9.78 121.57 9.78 121.57 14.14 128.89 14.14 128.89 19.18 121.57 19.18 121.57 23.71 131.21 23.71 131.21 28.75 115.7 28.75 115.7 4.74"/><path class="cls-15" d="M137.42,26.8h3.09V7.09h-3.09V5.15h10.74a9.6,9.6,0,0,1,4,.67A6.68,6.68,0,0,1,156,12.23c0,3.26-1.65,5.78-4.3,6.71a10.58,10.58,0,0,1-3.49.47h-5.34V26.8h3.09v1.95h-8.53V26.8ZM148,17.4a7.81,7.81,0,0,0,2.85-.47,4.7,4.7,0,0,0,2.79-4.7,4.68,4.68,0,0,0-2.45-4.5A8.21,8.21,0,0,0,148,7.16h-5.1V17.4H148Z"/><polygon class="cls-15" points="160.62 26.8 163.71 26.8 163.71 7.09 160.62 7.09 160.62 5.14 177.31 5.14 177.31 10.05 175.16 10.05 175.16 7.16 166.06 7.16 166.06 15.86 174.99 15.86 174.99 17.87 166.06 17.87 166.06 26.73 175.8 26.73 175.8 23.68 177.91 23.68 177.91 28.75 160.62 28.75 160.62 26.8"/><path class="cls-15" d="M195.31,4.74A11.92,11.92,0,0,1,207.36,16.8a12,12,0,1,1-24.07,0,11.91,11.91,0,0,1,12-12.05m0,22.26c5.27,0,9.6-4.43,9.6-10.21a9.59,9.59,0,1,0-19.17,0c0,5.77,4.3,10.21,9.57,10.21"/><path class="cls-15" d="M212.64,26.8h3.09V7.09h-3.09V5.15h10.74a9.6,9.6,0,0,1,4,.67,6.68,6.68,0,0,1,3.79,6.41c0,3.26-1.64,5.78-4.3,6.71a10.58,10.58,0,0,1-3.49.47h-5.34V26.8h3.09v1.95h-8.53V26.8Zm10.54-9.4a7.81,7.81,0,0,0,2.85-.47,4.7,4.7,0,0,0,2.79-4.7,4.68,4.68,0,0,0-2.45-4.5,8.21,8.21,0,0,0-3.19-.57h-5.1V17.4h5.1Z"/><polygon class="cls-15" points="235.84 26.8 238.93 26.8 238.93 7.16 235.84 7.16 235.84 5.14 244.37 5.14 244.37 7.16 241.28 7.16 241.28 26.73 250.71 26.73 250.71 22.81 252.86 22.81 252.86 28.75 235.84 28.75 235.84 26.8"/><polygon class="cls-15" points="257.36 26.8 260.45 26.8 260.45 7.09 257.36 7.09 257.36 5.14 274.05 5.14 274.05 10.05 271.9 10.05 271.9 7.16 262.8 7.16 262.8 15.86 271.73 15.86 271.73 17.87 262.8 17.87 262.8 26.73 272.54 26.73 272.54 23.68 274.65 23.68 274.65 28.75 257.36 28.75 257.36 26.8"/></g><path class="cls-16" d="M281.33,7.66a1.82,1.82,0,1,1-1.81-1.77A1.78,1.78,0,0,1,281.33,7.66Zm-3.18,0a1.37,1.37,0,0,0,1.38,1.41,1.36,1.36,0,0,0,1.35-1.4A1.37,1.37,0,1,0,278.15,7.66Zm1.09,0.93h-0.41V6.82a3.57,3.57,0,0,1,.68-0.05,1.1,1.1,0,0,1,.62.13,0.49,0.49,0,0,1,.17.39,0.45,0.45,0,0,1-.37.41v0a0.52,0.52,0,0,1,.32.43,1.34,1.34,0,0,0,.13.44h-0.44a1.54,1.54,0,0,1-.14-0.43,0.31,0.31,0,0,0-.37-0.28h-0.19V8.59Zm0-1h0.19c0.23,0,.41-0.08.41-0.26s-0.12-.27-0.38-0.27a1,1,0,0,0-.23,0V7.59Z"/></svg>